<svg width="2500" height="1826" viewBox="0 0 2500 1826" fill="none" xmlns="http://www.w3.org/2000/svg">
<g id="undraw_medicine_b1ol 1 1" clip-path="url(#clip0)">
<g id="undraw medicine b1ol 1">
<path id="window" opacity="0.1" d="M426.433 664.871H362.091V731.186H426.433V664.871Z" fill="#6C63FF"/>
<path id="window1" opacity="0.1" d="M1819.55 1146.92H1755.21V1213.23H1819.55V1146.92Z" fill="#6C63FF"/>
<g id="Group 5">
<path id="Vector" opacity="0.1" d="M831.144 1824.05C952.895 1824.05 1051.59 1807.72 1051.59 1787.56C1051.59 1767.41 952.895 1751.07 831.144 1751.07C709.4 1751.07 610.702 1767.41 610.702 1787.56C610.702 1807.72 709.4 1824.05 831.144 1824.05Z" fill="#6C63FF"/>
<path id="Vector 2" opacity="0.1" d="M2029.45 1825.08C2181.37 1825.08 2304.53 1808.74 2304.53 1788.59C2304.53 1768.43 2181.37 1752.09 2029.45 1752.09C1877.53 1752.09 1754.37 1768.43 1754.37 1788.59C1754.37 1808.74 1877.53 1825.08 2029.45 1825.08Z" fill="#6C63FF"/>
<path id="Vector 3" opacity="0.1" d="M31.3111 788.562H260.919V1111.11H48.1205C47.5548 1114.41 47.0118 1117.75 46.4237 1121.08H260.919V1381.2C260.534 1381.08 260.194 1380.94 259.832 1380.8C253.769 1378.33 247.751 1375.72 241.733 1372.92L237.888 1371.12C231.854 1368.19 225.822 1365.08 219.789 1361.8C217.684 1360.66 215.58 1359.47 213.499 1358.26C180.007 1338.92 149.58 1314.42 123.276 1285.6C122.507 1284.83 121.783 1284.02 121.014 1283.27C117.349 1279.17 113.752 1275.01 110.268 1270.78L106.421 1266.11C102.304 1260.91 98.3224 1255.57 94.4538 1250.16C93.8881 1249.37 93.3454 1248.57 92.7567 1247.83C77.0233 1225.35 63.9593 1201 53.8442 1175.31C53.5275 1174.55 53.256 1173.71 52.9619 1172.98C49.8549 1164.74 47.1024 1156.43 44.7042 1148.04C43.6636 1144.52 42.6681 1141.04 41.8085 1137.38C41.4917 1136.31 41.2202 1135.26 40.9713 1134.21C28.1211 1082.52 26.6053 1028.82 26.6053 975.495C26.6053 969.267 26.6053 963.019 26.6053 956.84C26.6053 935.271 26.8542 913.562 27.2162 891.881C27.2162 886.259 27.4424 880.665 27.5555 875.022C27.8723 860.709 28.3247 846.39 28.913 832.077C29.0487 828.083 29.2297 824.124 29.4333 820.158C29.4333 817.876 29.5464 815.587 29.7727 813.305C30.3156 805.004 30.7681 796.772 31.3111 788.562Z" fill="#6C63FF"/>
<path id="Vector 4" opacity="0.1" d="M260.92 429.442H134.973C155.446 396.416 177.816 364.68 201.962 334.404C220.672 310.715 240.422 287.631 260.92 265.387V429.442Z" fill="#6C63FF"/>
<path id="Vector 5" opacity="0.1" d="M260.918 439.423V778.583H32.0344C32.0344 777.602 32.1928 776.6 32.2606 775.626C32.4642 772.94 32.6679 770.261 32.8941 767.603C33.143 764.479 33.4145 761.327 33.7085 758.273C34.0026 755.218 34.3194 751.489 34.6588 748.107C34.9981 744.733 35.3148 741.302 35.6994 737.921C36.084 734.539 36.4234 731.157 36.8306 727.804C37.2378 724.443 37.5998 721.041 38.0297 717.68C38.369 714.883 38.731 712.107 39.0929 709.309C39.6133 705.371 40.1563 701.405 40.7445 697.488C40.7445 696.91 40.9029 696.298 40.9934 695.741C45.1226 667.065 50.7489 638.64 57.848 610.589C65.2789 581.164 74.7677 552.331 86.2407 524.318C98.4338 495.013 112.711 466.676 128.954 439.539L260.918 439.423Z" fill="#6C63FF"/>
<path id="Vector 6" opacity="0.1" d="M315.735 788.54V1111.1H806.144V788.54H315.735ZM315.735 1121.05V1398.06C318.54 1398.66 321.323 1399.25 324.083 1399.74C327.838 1400.48 331.571 1401.16 335.395 1401.74C336.118 1401.86 336.865 1401.98 337.657 1402.05C339.15 1402.3 340.688 1402.51 342.181 1402.72C345.96 1403.26 349.716 1403.7 353.494 1404.05C355.281 1404.24 357.09 1404.4 358.901 1404.54L363.267 1404.89C365.642 1405.08 367.995 1405.22 370.325 1405.29C371.773 1405.29 373.221 1405.43 374.714 1405.48C375.846 1405.48 376.977 1405.48 378.153 1405.48C379.329 1405.48 381.003 1405.48 382.429 1405.48C384.375 1405.48 386.32 1405.48 388.243 1405.48H390.845C392.791 1405.48 394.736 1405.48 396.66 1405.29H396.795C398.13 1405.29 399.487 1405.29 400.845 1405.1C401.221 1405.12 401.599 1405.12 401.976 1405.1C403.107 1405.1 404.238 1405.1 405.324 1404.93H406.116L413.695 1404.33C416.184 1404.1 418.695 1403.79 421.228 1403.51L426.387 1402.89C447.372 1399.85 468.124 1395.3 488.489 1389.27C534.234 1376.12 578.983 1357.72 624.705 1344.25C683.821 1326.87 749.137 1318.34 806.262 1339.58V1121.05H315.735ZM806.144 429.443V0.0228727C752.456 -0.57665 698.907 5.89555 646.809 19.2823C522.628 51.4358 411.207 121.175 315.735 210.244V429.42H340.349V439.376H315.735V778.583H806.144V439.399H441.409V429.443H806.144ZM1436.06 284.391C1405.34 283.272 1374.79 273.245 1347.17 257.764C1294.34 228.151 1252.15 182.428 1205 143.839C1107.04 63.4671 985.555 14.9688 860.917 2.93743V429.443H1561.01L1562.75 427.554L1436.06 284.391ZM1499.83 272.733L1567.46 349.211V252.68C1544.81 255.572 1524.97 262.45 1499.92 272.639L1499.83 272.733ZM1567.46 1466.84V1121.05H1423.37C1422.98 1119.59 1422.59 1118.1 1422.14 1116.6C1422.57 1118.1 1422.93 1119.59 1423.34 1121.05H861.007V1371.12C866.351 1375.21 871.618 1379.49 876.844 1383.86C882.48 1388.52 888.046 1393.44 893.633 1398.27L899.269 1403.07C901.955 1405.4 904.676 1407.74 907.41 1409.93C912.837 1414.47 918.32 1418.94 923.859 1423.36C926.593 1425.69 929.397 1427.78 932.181 1429.97C976.364 1464.79 1022.96 1496.2 1071.61 1523.97C1082.51 1530.18 1093.52 1536.26 1104.62 1542.18C1112.02 1546.07 1119.46 1549.94 1126.93 1553.69C1138.15 1559.34 1149.46 1564.78 1160.86 1570.02C1265.99 1618.65 1377.15 1652.02 1491.17 1669.18C1516.49 1673.04 1541.92 1676.07 1567.43 1678.28V1466.82H1569.69L1567.46 1466.84ZM861.007 439.399V778.583H1567.55V439.399H861.007ZM861.007 788.54V1111.1H1567.55V788.54H861.007ZM1622.38 252.261V359.936L1708.69 262.334C1680.1 257.577 1651.33 254.181 1622.38 252.145V252.261ZM1622.38 788.658V1111.1H2309.58V788.54L1622.38 788.658ZM2307.06 1492.44L2309.48 1121.05H1622.38V1681.99C1666.65 1683.9 1710.98 1683.36 1755.18 1680.35H1755.96C1777.07 1678.98 1798.09 1676.99 1819.01 1674.38H1819.48C1931.09 1660.99 2040.21 1630.98 2143.45 1585.29L2307.06 1492.44ZM2442.08 841.657C2439.51 835.381 2436.82 829.16 2434.07 823.003C2428.96 811.341 2423.55 800.013 2417.99 788.679H2364.37V1111.1H2499.93C2499.86 1019.79 2477.44 926.53 2442.15 841.539L2442.08 841.657ZM2364.37 1121.17V1440.61C2402.56 1402.89 2434.82 1359.73 2458.06 1310.39C2485.99 1250.97 2498.78 1186.65 2499.82 1121.12L2364.37 1121.17ZM2364.37 694.668V778.611H2412.97C2398.27 749.714 2382.07 721.653 2364.44 694.552L2364.37 694.668ZM1898.32 315.542C1894.75 314.143 1891.18 312.721 1887.58 311.345C1849.64 296.906 1810.88 284.898 1771.5 275.391L1639.42 424.78L1636.88 427.554L1638.58 429.467H2108.66C2043.19 383.021 1972.61 344.74 1898.39 315.425L1898.32 315.542ZM2122.43 439.516H1632.02L1622.38 448.609V778.583H1706.86H1707H2309.67V618.75C2255.15 550.796 2192.23 490.498 2122.5 439.399L2122.43 439.516Z" fill="#6C63FF"/>
<path id="Vector 7" opacity="0.1" d="M260.918 610.495V778.582H32.0344C32.0344 777.601 32.1928 776.599 32.2606 775.625C32.4642 772.939 32.6679 770.26 32.8941 767.603C33.143 764.478 33.4145 761.327 33.7085 758.272C34.0026 755.217 34.3194 751.488 34.6588 748.106C34.9981 744.732 35.3148 741.302 35.6994 737.92C36.084 734.538 36.4234 731.157 36.8306 727.803C37.2378 724.442 37.5998 721.04 38.0297 717.679C38.369 714.882 38.731 712.106 39.0929 709.309C39.6133 705.371 40.1563 701.405 40.7445 697.487C40.7445 696.91 40.9029 696.297 40.9934 695.741C45.1226 667.065 50.7489 638.64 57.848 610.589L260.918 610.495Z" fill="#6C63FF"/>
<path id="Vector 8" opacity="0.1" d="M31.3111 788.562H260.919V1111.11H48.1205C47.5548 1114.41 47.0118 1117.75 46.4237 1121.08H260.919V1381.2C260.534 1381.08 260.194 1380.94 259.832 1380.8C253.769 1378.33 247.751 1375.72 241.733 1372.92L237.888 1371.12C231.854 1368.19 225.822 1365.08 219.789 1361.8C217.684 1360.66 215.58 1359.47 213.499 1358.26C180.007 1338.92 149.58 1314.42 123.276 1285.6C122.507 1284.83 121.783 1284.02 121.014 1283.27C117.349 1279.17 113.752 1275.01 110.268 1270.78L106.421 1266.11C102.304 1260.91 98.3224 1255.57 94.4538 1250.16C93.8881 1249.37 93.3454 1248.57 92.7567 1247.83C77.0233 1225.35 63.9593 1201 53.8442 1175.31C53.5275 1174.55 53.256 1173.71 52.9619 1172.98C49.8549 1164.74 47.1024 1156.43 44.7042 1148.04C43.6636 1144.52 42.6681 1141.04 41.8085 1137.38C41.4917 1136.31 41.2202 1135.26 40.9713 1134.21C28.1211 1082.52 26.6053 1028.82 26.6053 975.495C26.6053 969.267 26.6053 963.019 26.6053 956.84C26.6053 935.271 26.8542 913.562 27.2162 891.881C27.2162 886.259 27.4424 880.665 27.5555 875.022C27.8723 860.709 28.3247 846.39 28.913 832.077C29.0487 828.083 29.2297 824.124 29.4333 820.158C29.4333 817.876 29.5464 815.587 29.7727 813.305C30.3156 805.004 30.7681 796.772 31.3111 788.562Z" fill="#6C63FF"/>
<path id="Vector 9" opacity="0.1" d="M488.376 487.968V778.584H315.735V487.968H340.349V389.572H441.386V487.968H488.376Z" fill="#6C63FF"/>
<path id="Vector 10" opacity="0.1" d="M488.375 788.541H315.756V1111.08H488.375V788.541Z" fill="#6C63FF"/>
<path id="Vector 11" opacity="0.1" d="M315.735 1121.08H488.376V1389.22C468.011 1395.25 447.259 1399.79 426.274 1402.82L421.116 1403.46C418.582 1403.77 416.07 1404.03 413.582 1404.28C411.093 1404.53 408.514 1404.72 406.003 1404.89H405.211C404.125 1404.89 402.949 1405.03 401.885 1405.05H400.732C399.374 1405.05 398.016 1405.19 396.659 1405.24C394.736 1405.36 392.813 1405.38 390.845 1405.4C390.008 1405.4 389.216 1405.4 388.379 1405.4C386.434 1405.4 384.51 1405.4 382.565 1405.4H378.289C377.135 1405.4 376.026 1405.4 374.828 1405.4L370.461 1405.24C368.199 1405.24 365.755 1404.98 363.403 1404.82L359.059 1404.49L353.652 1403.98C349.851 1403.63 346.073 1403.18 342.34 1402.65L337.815 1401.99L335.553 1401.67C331.774 1401.06 328.041 1400.41 324.241 1399.66C321.459 1399.18 318.698 1398.57 315.893 1397.99L315.735 1121.08Z" fill="#6C63FF"/>
<path id="Vector 12" opacity="0.1" d="M1567.55 453.647H1425.19V778.564H1567.55V453.647Z" fill="#6C63FF"/>
<path id="Vector 13" opacity="0.1" d="M1567.57 788.541V1111.11H861.008V971.974H1237.35V1054.05H1425.2V788.541H1567.57Z" fill="#6C63FF"/>
<path id="Vector 14" opacity="0.1" d="M1569.81 1466.91H1567.55V1678.51C1542.05 1676.29 1516.64 1673.26 1491.3 1669.44C1377.23 1652.23 1266.02 1618.78 1160.86 1570.07C1130.5 1555.98 1100.76 1540.61 1071.63 1523.94C1022.99 1496.17 976.378 1464.75 932.181 1429.95C921.083 1421.19 910.125 1412.22 899.312 1403.05C891.825 1396.68 884.38 1390.15 876.845 1383.81C871.619 1379.45 866.352 1375.16 861.008 1371.05V1121.08H1423.32C1422.93 1119.59 1422.55 1118.1 1422.14 1116.63C1422.57 1118.1 1422.98 1119.59 1423.37 1121.08H1567.55V1466.77C1568.31 1466.8 1569.06 1466.87 1569.81 1466.91Z" fill="#6C63FF"/>
<path id="Vector 15" opacity="0.1" d="M1938.8 429.443H1846.04V399.738H1887.62V311.252C1891.23 312.605 1894.82 313.996 1898.39 315.426V399.738H1938.8V429.443Z" fill="#6C63FF"/>
<path id="Vector 16" opacity="0.1" d="M2162.27 778.583H1706.91C1706.91 778.583 1706.91 778.583 1707.06 778.701L1706.86 778.583H1622.38V453.669H1646.32V693.829H1755.71V551.599H1846.06V439.423H1938.82V551.692H2029.18V693.923H2162.27V778.583Z" fill="#6C63FF"/>
<path id="Vector 17" opacity="0.1" d="M1622.38 788.541V1111.11H2162.27V788.541H1622.38ZM2308.83 1490.79L2309.58 1235.47H2162.27V1121.22H1622.38V1681.99C1666.65 1683.9 1710.98 1683.36 1755.18 1680.35H1755.96C1777.07 1678.98 1798.09 1676.99 1819.01 1674.38H1819.48C1931.09 1661 2040.21 1630.99 2143.45 1585.29" fill="#6C63FF"/>
<path id="Vector 18" opacity="0.1" d="M2373.96 1121.08H2499.91C2498.8 1186.58 2486.04 1250.9 2458.13 1310.32C2434.89 1359.68 2402.6 1402.84 2364.46 1440.54V1235.35H2373.96V1121.08Z" fill="#6C63FF"/>
<path id="Vector 19" opacity="0.1" d="M2499.98 1111.1H2373.96V841.538H2442.15C2477.44 926.53 2499.86 1019.79 2499.98 1111.1Z" fill="#6C63FF"/>
<path id="Vector 20" opacity="0.1" d="M1567.57 543.973H1491.3V645.843H1567.57V543.973Z" fill="#6C63FF"/>
<path id="Vector 21" opacity="0.1" d="M1567.57 755.127H1491.3V778.583H1567.57V755.127Z" fill="#6C63FF"/>
<path id="Vector 22" opacity="0.1" d="M1567.57 788.541H1491.3V856.972H1567.57V788.541Z" fill="#6C63FF"/>
<path id="Vector 23" opacity="0.1" d="M1567.57 966.281H1491.3V1068.15H1567.57V966.281Z" fill="#6C63FF"/>
<path id="Vector 24" opacity="0.1" d="M1567.57 1177.44H1491.3V1279.31H1567.57V1177.44Z" fill="#6C63FF"/>
<path id="Vector 25" opacity="0.1" d="M1567.55 1466.77C1568.31 1466.77 1569.06 1466.77 1569.81 1466.92H1567.55V1490.58H1491.3V1388.59H1567.55V1466.77Z" fill="#6C63FF"/>
<path id="Vector 26" opacity="0.1" d="M1567.55 1599.7V1678.4C1542.05 1676.17 1516.64 1673.15 1491.3 1669.32V1599.7H1567.55Z" fill="#6C63FF"/>
<path id="Vector 27" opacity="0.1" d="M1187.85 1103.62H861.008V1111.1H1187.85V1103.62Z" fill="#6C63FF"/>
<path id="Vector 28" opacity="0.1" d="M1187.85 1121.05H861.008V1149.73H1187.85V1121.05Z" fill="#6C63FF"/>
<path id="Vector 29" opacity="0.1" d="M1187.85 1243.75H861.008V1289.87H1187.85V1243.75Z" fill="#6C63FF"/>
<path id="Vector 30" opacity="0.1" d="M1187.83 1383.88V1430H932.18C921.082 1421.26 910.116 1412.29 899.289 1403.1C891.802 1396.73 884.378 1390.2 876.822 1383.88H1187.83Z" fill="#6C63FF"/>
<path id="Vector 31" opacity="0.1" d="M1187.83 1523.99V1570.07H1160.84C1130.51 1555.96 1100.77 1540.58 1071.63 1523.92L1187.83 1523.99Z" fill="#6C63FF"/>
<path id="Vector 32" opacity="0.1" d="M1819.55 819.809H1755.2V886.119H1819.55V819.809Z" fill="#6C63FF"/>
<path id="Vector 33" opacity="0.1" d="M426.433 510.84H362.091V577.152H426.433V510.84Z" fill="#6C63FF"/>
<path id="Vector 34" opacity="0.1" d="M426.433 818.897H362.091V885.214H426.433V818.897Z" fill="#6C63FF"/>
<path id="Vector 35" opacity="0.1" d="M426.433 972.907H362.091V1039.22H426.433V972.907Z" fill="#6C63FF"/>
<path id="Vector 36" opacity="0.1" d="M426.433 1126.93H362.091V1193.24H426.433V1126.93Z" fill="#6C63FF"/>
<path id="Vector 37" opacity="0.1" d="M426.433 1280.96H362.091V1347.27H426.433V1280.96Z" fill="#6C63FF"/>
<path id="Vector 38" opacity="0.1" d="M2065.18 819.809H2000.84V886.119H2065.18V819.809Z" fill="#6C63FF"/>
<path id="Vector 39" opacity="0.1" d="M1819.55 983.378H1755.2V1049.69H1819.55V983.378Z" fill="#6C63FF"/>
<path id="Vector 40" opacity="0.1" d="M2065.18 983.378H2000.84V1049.69H2065.18V983.378Z" fill="#6C63FF"/>
<path id="Vector 41" opacity="0.1" d="M2065.18 1146.92H2000.84V1213.23H2065.18V1146.92Z" fill="#6C63FF"/>
<path id="Vector 42" opacity="0.1" d="M1819.55 1310.48H1755.2V1376.8H1819.55V1310.48Z" fill="#6C63FF"/>
<path id="Vector 43" opacity="0.1" d="M2065.18 1310.48H2000.84V1376.8H2065.18V1310.48Z" fill="#6C63FF"/>
<path id="Vector 44" opacity="0.1" d="M2065.18 1474.05H2000.84V1540.35H2065.18V1474.05Z" fill="#6C63FF"/>
<path id="Vector 45" opacity="0.1" d="M1755.2 1680.35V1637.59H1819.52V1674.26L1755.2 1680.35Z" fill="#6C63FF"/>
<path id="Vector 46" opacity="0.1" d="M40.7228 695.695V733.628H260.919V695.695H40.7228ZM62.6677 731.255H44.7046V698.024H62.8034L62.6677 731.255ZM84.5897 731.255H66.4911V698.024H84.5897V731.255ZM106.467 731.255H88.3679V698.024H106.467V731.255ZM128.389 731.255H110.313V698.024H128.412L128.389 731.255ZM150.289 731.255H132.19V698.024H150.289V731.255ZM172.212 731.255H154.112V698.024H172.212V731.255ZM194.133 731.255H176.035V698.024H194.133V731.255ZM216.034 731.255H197.935V698.024H216.034V731.255ZM237.933 731.255H219.834V698.024H237.933V731.255ZM259.833 731.255H241.734V698.024H259.833V731.255Z" fill="#6C63FF"/>
<path id="Vector 47" opacity="0.1" d="M40.7228 806.073V844.009H260.919V806.073H40.7228ZM62.6677 841.608H44.7046V808.474H62.8034L62.6677 841.608ZM84.5897 841.608H66.4911V808.474H84.5897V841.608ZM106.467 841.608H88.3679V808.474H106.467V841.608ZM128.389 841.608H110.313V808.474H128.412L128.389 841.608ZM150.289 841.608H132.19V808.474H150.289V841.608ZM172.212 841.608H154.112V808.474H172.212V841.608ZM194.133 841.608H176.035V808.474H194.133V841.608ZM216.034 841.608H197.935V808.474H216.034V841.608ZM237.933 841.608H219.834V808.474H237.933V841.608ZM259.833 841.608H241.734V808.474H259.833V841.608Z" fill="#6C63FF"/>
<path id="Vector 48" opacity="0.1" d="M40.7228 916.504V954.509H260.919V916.504H40.7228ZM62.6677 952.039H44.7046V918.877H62.8034L62.6677 952.039ZM84.5897 952.039H66.4911V918.877H84.5897V952.039ZM106.467 952.039H88.3679V918.877H106.467V952.039ZM128.389 952.039H110.313V918.877H128.412L128.389 952.039ZM150.289 952.039H132.19V918.877H150.289V952.039ZM172.212 952.039H154.112V918.877H172.212V952.039ZM194.133 952.039H176.035V918.877H194.133V952.039ZM216.034 952.039H197.935V918.877H216.034V952.039ZM237.933 952.039H219.834V918.877H237.933V952.039ZM259.833 952.039H241.734V918.877H259.833V952.039Z" fill="#6C63FF"/>
<path id="Vector 49" opacity="0.1" d="M40.7228 1026.93V1064.82H260.919V1026.93H40.7228ZM62.6677 1062.46H44.7046V1029.29H62.8034L62.6677 1062.46ZM84.5897 1062.46H66.4911V1029.29H84.5897V1062.46ZM106.467 1062.46H88.3679V1029.29H106.467V1062.46ZM128.389 1062.46H110.313V1029.29H128.412L128.389 1062.46ZM150.289 1062.46H132.19V1029.29H150.289V1062.46ZM172.212 1062.46H154.112V1029.29H172.212V1062.46ZM194.133 1062.46H176.035V1029.29H194.133V1062.46ZM216.034 1062.46H197.935V1029.29H216.034V1062.46ZM237.933 1062.46H219.834V1029.29H237.933V1062.46ZM259.833 1062.46H241.734V1029.29H259.833V1062.46Z" fill="#6C63FF"/>
<path id="Vector 50" opacity="0.1" d="M41.6719 1137.33C42.5542 1140.9 43.5496 1144.47 44.5903 1147.99V1139.71H62.6892V1172.86H53.0063C53.3004 1173.64 53.5945 1174.48 53.8886 1175.2H260.918V1137.33H41.6719ZM84.6568 1172.86H66.5578V1139.71H84.6568V1172.86ZM106.534 1172.86H88.435V1139.71H106.534V1172.86ZM128.456 1172.86H110.312V1139.71H128.411L128.456 1172.86ZM150.355 1172.86H132.257V1139.71H150.355V1172.86ZM172.278 1172.86H154.179V1139.71H172.278V1172.86ZM194.2 1172.86H176.101V1139.71H194.2V1172.86ZM216.1 1172.86H198.001V1139.71H216.1V1172.86ZM237.999 1172.86H219.901V1139.71H237.999V1172.86ZM259.899 1172.86H241.801V1139.71H259.899V1172.86Z" fill="#6C63FF"/>
<path id="Vector 51" opacity="0.1" d="M92.801 1247.76C93.3667 1248.5 93.9094 1249.35 94.4981 1250.09H106.466V1266.02C107.755 1267.6 109.022 1269.19 110.334 1270.68V1250H128.433V1283.27H121.103C121.827 1284.04 122.528 1284.86 123.365 1285.61H260.985V1247.76H92.801ZM150.288 1283.27H132.189V1250.14H150.288V1283.27ZM172.21 1283.27H154.111V1250.14H172.21V1283.27ZM194.132 1283.27H176.034V1250.14H194.132V1283.27ZM216.032 1283.27H197.933V1250.14H216.032V1283.27ZM237.932 1283.27H219.833V1250.14H237.932V1283.27ZM259.831 1283.27H241.732V1250.14H259.831V1283.27Z" fill="#6C63FF"/>
<path id="Vector 52" opacity="0.1" d="M213.59 1358.16C215.648 1359.37 217.753 1360.49 219.879 1361.71V1360.54H237.978V1371.03L241.824 1372.88V1360.54H259.923V1380.71C260.27 1380.89 260.634 1381.02 261.009 1381.13V1358.16H213.59Z" fill="#6C63FF"/>
<path id="Vector 53" opacity="0.1" d="M1706.91 778.583H1707.04H1706.91ZM1567.55 1466.75H1569.81H1567.55ZM1422.14 1116.6C1422.57 1118.1 1422.93 1119.59 1423.34 1121.06C1422.98 1119.59 1422.59 1118.1 1422.14 1116.6ZM1706.91 778.514H1707.04H1706.91ZM340.439 429.374V439.33H441.499V429.374H340.439ZM1567.55 1466.75H1569.81H1567.55ZM1422.14 1116.6C1422.57 1118.1 1422.93 1119.59 1423.34 1121.06C1422.98 1119.59 1422.59 1118.1 1422.14 1116.6ZM1706.91 778.514H1707.04H1706.91ZM1567.55 1466.68H1569.81H1567.55ZM1422.14 1116.6C1422.57 1118.1 1422.93 1119.59 1423.34 1121.06C1422.98 1119.59 1422.59 1118.1 1422.14 1116.6Z" fill="#6C63FF"/>
<path id="Vector 54" d="M1044.31 885.254C1044.31 885.254 1035.4 883.974 1035.4 870.587C1035.4 857.207 1029.02 832.214 1029.02 832.214C1029.02 832.095 1023.49 788.678 1015.87 781.775C1008.25 774.873 998.449 734.35 998.449 734.35C998.449 734.35 996.772 712.362 993.356 707.631C989.94 702.9 985.326 691.31 978.514 674.778C971.71 658.247 943.314 646.798 943.314 646.798C943.314 646.798 891.985 616.113 877.436 606.111C876.114 605.289 874.876 604.328 873.748 603.243C871.216 599.816 860.173 599.745 860.173 599.745C859.018 592.238 857.912 583.611 857.55 575.8C857.55 574.96 857.55 574.121 857.439 573.282C873.658 563.399 885.876 547.818 891.846 529.4C892.117 528.513 892.347 527.581 892.59 526.695C893.565 526.365 894.462 525.829 895.221 525.123C895.979 524.416 896.584 523.554 897.002 522.591C898.317 519.583 898.338 516.063 899.966 513.265C901.866 509.953 905.491 508.181 908.336 505.687C915.531 499.391 917.389 488.782 917.048 479.129C916.825 471.318 915.601 463.437 916.074 455.673L916.213 453.714C916.345 452.548 916.505 451.383 916.707 450.263C917.82 444.481 920.242 439.025 921.598 433.289C922.955 427.553 923.087 421.095 919.921 416.151C915.287 408.9 905.623 407.454 897.141 406.708C887.525 405.868 878.925 406.964 872.774 398.734C869.894 394.432 866.651 390.398 863.089 386.679C861.822 385.467 849.521 377.725 849.521 377.213C837.504 371.479 823.888 370.403 811.168 374.181C804.788 376.093 798.776 379.218 792.305 380.78C778.341 384.184 762.282 380.5 750.425 388.731C743.822 393.394 739.863 400.809 736.147 408.037C733.135 413.99 730.073 419.936 726.963 425.874C721.967 435.644 716.874 445.577 714.773 456.395C714.327 458.75 714.056 461.134 713.958 463.531V463.647C713.958 464.51 713.958 465.372 713.958 466.235V467.331C713.958 468.147 713.958 468.94 714.091 469.663C714.23 470.386 714.209 470.619 714.272 471.108C714.341 471.598 714.452 472.694 714.592 473.44C714.724 474.186 714.995 475.492 715.267 476.518C715.385 476.961 715.538 477.38 715.677 477.8C715.9 478.593 716.171 479.362 716.47 480.132C716.623 480.528 716.783 480.948 716.964 481.344C717.305 482.161 717.716 482.953 718.119 483.676C718.3 484.002 718.439 484.305 718.62 484.608C719.247 485.693 719.942 486.736 720.701 487.733C725.544 493.959 732.668 497.922 737.936 503.751C737.936 503.984 737.936 504.217 737.936 504.427C737.936 505.08 737.936 505.71 737.936 506.362C738.221 519.363 741.575 532.096 747.719 543.454C753.862 554.812 762.602 564.451 773.185 571.532C773.185 572.419 773.296 573.328 773.345 574.214C773.783 581.135 773.7 588.081 773.094 594.989C772.176 593.871 771.021 592.98 769.72 592.383C768.419 591.786 767.006 591.497 765.587 591.538C764.613 591.489 763.638 591.575 762.685 591.795L762.483 591.631V591.841C757.508 593.1 751.378 598.439 745.52 613.619C745.52 613.619 727.687 634.324 714.118 633.461C700.543 632.598 666.176 655.006 666.176 655.006C666.176 655.006 632.648 677.436 625.453 700.283C621.432 713.246 616.611 725.924 611.019 738.246L569.573 826.265L561.926 896.102C561.926 896.102 566.156 927.155 565.319 931.887C564.482 936.625 582.717 979.312 582.717 979.312C582.717 979.312 642.964 1088.41 667.579 1094.01L669.343 1092.73C670.396 1093.29 671.513 1093.72 672.668 1094.01L677.737 1090.33C678.041 1094.43 677.912 1098.56 677.352 1102.64C673.958 1113.41 678.619 1183.71 684.546 1197.49C690.473 1211.27 688.37 1391.95 688.37 1391.95L687.533 1407.9C687.533 1407.9 687.533 1408.41 687.736 1409.29L687.533 1413.07L688.143 1413.4C688.778 1418.46 688.571 1423.59 687.533 1428.57C685.406 1435.57 684.546 1455.34 684.546 1455.34C684.546 1455.34 667.601 1566.98 675.633 1589.42C683.664 1611.85 690.496 1636.42 690.496 1636.42C690.496 1636.42 698.978 1664.4 690.903 1669.18C682.826 1673.96 659.864 1681.98 664.592 1693.64C668.89 1704.41 685.202 1733.28 687.623 1737.5L687.419 1739.71L684.093 1776.86C684.632 1781.76 685.923 1786.55 687.917 1791.04C691.559 1799.12 698.644 1807.52 712.101 1806.61C714.362 1806.45 716.985 1806.16 719.525 1805.82C744.156 1802.41 774.5 1791.08 774.5 1791.08C772.92 1790.05 771.48 1788.82 770.2 1787.42C768.989 1786.21 768.029 1784.76 767.382 1783.15C766.728 1781.55 766.401 1779.83 766.422 1778.1C766.783 1771.33 754.496 1739.11 751.441 1731.18C750.968 1730.04 750.717 1729.38 750.717 1729.38C750.717 1729.38 778.73 1699.21 774.068 1672.47C774.068 1672.47 743.071 1653.82 753.278 1643.58C763.478 1633.34 781.715 1603.94 781.715 1603.94C781.715 1603.94 782.55 1494 781.715 1477.59C780.838 1466.2 781.367 1454.74 783.274 1443.48C783.615 1441.77 784.025 1440.12 784.45 1438.49C798.56 1440.66 812.81 1441.77 827.074 1441.82C832.279 1441.82 837.574 1441.82 842.911 1441.5C842.911 1443.05 842.98 1444.73 843.112 1446.53C844.288 1473.77 846.487 1521.52 848.275 1539.26C850.808 1564.7 864.814 1633.25 864.814 1633.25C864.814 1633.25 838.096 1650.92 869.469 1694.48C869.469 1694.48 869.469 1710.26 867.389 1712.55C865.169 1720.02 863.381 1727.62 862.031 1735.3C860.716 1743.51 860.173 1751.81 862.302 1756.13C867.389 1766.43 897.934 1765.6 897.934 1765.6L898.679 1765.45C904.447 1764.84 910.271 1765.41 915.823 1767.14C921.369 1768.86 926.532 1771.71 931.006 1775.51C942.611 1785.11 986.662 1780.89 1010.51 1777.84C1019.85 1776.63 1026.09 1775.51 1026.09 1775.51C1026.4 1774.41 1026.5 1773.28 1026.41 1772.15C1026.16 1766.11 1021.57 1752.87 990.44 1741.04C990.44 1741.04 961.168 1720.75 961.572 1703.08H960.96H957.571C960.034 1702.94 961.621 1703.08 961.621 1703.08C961.621 1703.08 950.147 1659.95 954.83 1656.45C959.512 1652.96 945.485 1605.15 945.485 1605.15C945.485 1605.15 937.455 1524.94 937.024 1519.33C937.045 1514.51 937.755 1509.71 939.132 1505.11L937.024 1461.13C937.024 1461.13 936.621 1446.51 937.024 1441.75C936.955 1437.62 936.635 1433.5 936.05 1429.42C935.848 1427.78 935.646 1426.08 935.417 1424.41C946.39 1421.53 953.522 1418.88 953.522 1418.88L952.248 1265.81C961.572 1247.15 963.29 1206.23 963.249 1177.2C963.249 1158.55 962.435 1144.75 962.435 1144.75L975.168 1123.32C975.168 1123.32 978.111 1097.67 973.449 1092.05C971.39 1089.51 972.315 1086.88 974.013 1084.7C974.896 1083.99 975.829 1083.33 976.796 1082.75C976.796 1082.75 976.664 1082.54 976.504 1082.23C977.394 1081.47 978.341 1080.77 979.329 1080.16C979.329 1080.16 974.806 1072.93 978.856 1069.88C982.655 1072.54 986.05 1074.54 988.631 1076.17C988.451 1077.87 988.27 1078.85 988.27 1078.85L989.355 1076.52C991.846 1077.97 993.356 1078.85 993.356 1078.85C993.356 1078.85 1013.31 1037.88 1012.88 1031.84C1012.46 1025.81 1026.45 1000.37 1026.45 1000.37C1026.45 1000.37 1028.15 987.008 1035.8 981.414C1043.45 975.819 1041.73 935.268 1041.73 935.268C1041.73 935.268 1043.86 914.144 1048.94 905.516C1054.04 896.888 1044.31 885.254 1044.31 885.254ZM662.51 867.282L662.895 877.051C660.633 873.294 659.004 870.587 659.004 870.587L662.51 867.282Z" fill="url(#paint0_linear)"/>
<path id="Vector 55" d="M994.439 1061.16L989.554 1082.61C989.554 1082.61 950.416 1062.02 943.361 1035.86C936.298 1009.7 955.168 999.762 955.168 999.762L991.635 1015.69L994.439 1061.16Z" fill="white"/>
<path id="Vector 56" opacity="0.1" d="M994.439 1061.16L989.554 1082.61C989.554 1082.61 950.416 1062.02 943.361 1035.86C936.298 1009.7 955.168 999.762 955.168 999.762L991.635 1015.69L994.439 1061.16Z" fill="black"/>
<path id="Vector 57" d="M774.792 1791.22C774.792 1791.22 738.596 1804.93 713.708 1806.66C700.495 1807.56 693.55 1799.22 689.976 1791.17C688.023 1786.7 686.763 1781.94 686.243 1777.06L689.478 1740.11L691.198 1720.43L744.065 1706.28L751.559 1729.88L752.262 1731.67C755.268 1739.55 767.326 1771.61 766.964 1778.3C766.95 1780.01 767.27 1781.71 767.91 1783.3C768.543 1784.88 769.483 1786.31 770.672 1787.51C771.89 1788.92 773.275 1790.17 774.792 1791.22Z" fill="white"/>
</g>
<g id="shoe male">
<path id="Vector 58" d="M1022.05 1772.42C1022.14 1773.55 1022.03 1774.68 1021.73 1775.76C1021.73 1775.76 944.312 1789.08 928.476 1775.76C924.009 1771.87 918.804 1768.99 913.196 1767.29C907.588 1765.6 901.694 1765.13 895.898 1765.92C895.898 1765.92 865.944 1766.76 860.949 1756.6C858.861 1752.33 859.404 1744.05 860.698 1735.89C862.013 1728.24 863.767 1720.69 865.944 1713.25L867.141 1712.27L874.273 1706.37L957.706 1703.83H958.339C957.935 1721.41 986.665 1741.58 986.665 1741.58C1017.18 1753.23 1021.68 1766.41 1022.05 1772.42Z" fill="white"/>
<path id="Vector 59" opacity="0.1" d="M1022.05 1772.43C1022.13 1773.55 1022.01 1774.68 1021.7 1775.76C1021.7 1775.76 944.312 1789.07 928.476 1775.76C924.015 1771.88 918.811 1768.99 913.21 1767.3C907.602 1765.61 901.715 1765.13 895.919 1765.92C895.919 1765.92 865.944 1766.76 860.97 1756.6C858.889 1752.3 859.404 1744.05 860.698 1735.89C872.234 1737.08 890.443 1740.04 897.596 1747.11C908.409 1757.86 926.736 1768.58 937.98 1769.42C946.782 1770 999.426 1771.73 1022.05 1772.43Z" fill="black"/>
</g>
<g id="Group 4">
<path id="Vector 60" opacity="0.1" d="M774.793 1791.22C774.793 1791.22 738.597 1804.93 713.709 1806.66C700.496 1807.56 693.551 1799.22 690 1791.15C699.208 1794.34 711.99 1797.7 718.712 1794.63C726.671 1790.99 754.907 1788.63 770.743 1787.63C771.947 1788.99 773.311 1790.2 774.793 1791.22Z" fill="black"/>
<path id="Vector 61" d="M828.501 686.368C798.637 674.406 760.222 634.885 769.817 616.419C771.946 611.759 773.212 606.73 773.546 601.59C774.166 594.613 774.256 587.597 773.818 580.605C773.143 569.155 771.807 557.756 769.817 546.47C769.817 546.47 863.047 548.639 857.62 562.792C856.034 566.942 855.783 574.146 856.215 582.214C856.646 590.281 857.773 599.398 858.949 607.116C860.584 617.701 862.213 625.768 862.213 625.768C862.213 625.768 856.507 634 853.16 634.442C849.813 634.885 871.348 703.409 828.501 686.368Z" fill="#CF6F80"/>
<path id="Vector 62" opacity="0.1" d="M752.193 1731.67L751.49 1732.47C723.617 1697.73 689.909 1741.02 689.909 1741.02L689.41 1740.11L691.13 1720.44L744.004 1706.28L751.49 1729.88L752.193 1731.67Z" fill="black"/>
<path id="Vector 63" opacity="0.1" d="M958.357 1706.28C958.357 1706.28 937.998 1705.84 927.137 1715.72C916.282 1725.6 863.792 1717.87 866.053 1715.72C866.728 1714.66 867.131 1713.44 867.229 1712.18L874.361 1706.28L957.793 1703.74C958.114 1705.3 958.357 1706.28 958.357 1706.28Z" fill="black"/>
<path id="Vector 64" d="M786.873 1433.46C785.356 1437.32 784.208 1441.32 783.436 1445.42C781.55 1456.62 781.029 1468.02 781.877 1479.36C782.712 1495.69 781.877 1605.07 781.877 1605.07C781.877 1605.07 763.982 1634.23 754.004 1644.52C744.026 1654.79 774.363 1673.26 774.363 1673.26C778.886 1699.85 751.471 1729.88 751.471 1729.88C723.598 1695.14 689.888 1738.46 689.888 1738.46C689.888 1738.46 671.562 1705.81 666.992 1694.16C662.422 1682.49 684.888 1674.43 692.784 1669.7C700.678 1664.96 692.399 1637.05 692.399 1637.05C692.399 1637.05 685.725 1612.59 677.807 1590.28C669.888 1567.97 686.539 1456.89 686.539 1456.89C686.539 1456.89 687.399 1437.16 689.458 1430.28C690.496 1425.32 690.703 1420.21 690.069 1415.18C689.933 1413.47 689.775 1412.05 689.662 1411.09C689.548 1410.14 689.458 1409.69 689.458 1409.69L689.775 1409.14L701.089 1387.4C701.089 1387.4 792.307 1419.77 786.873 1433.46Z" fill="#6C63FF"/>
<path id="Vector 65" d="M958.358 1703.72C958.358 1703.72 937.999 1703.27 927.138 1713.04C916.284 1722.81 863.793 1715.19 866.054 1713.04C868.322 1710.9 868.142 1695.02 868.142 1695.02C837.346 1651.7 863.612 1634.11 863.612 1634.11C863.612 1634.11 849.856 1565.91 847.372 1540.61C845.626 1522.94 843.476 1475.44 842.328 1448.33C841.827 1436.67 841.534 1428.64 841.534 1428.64L866.687 1423.43L869.923 1422.75L930.603 1410.21C930.603 1410.21 932.273 1421.86 933.407 1431.4C933.971 1435.47 934.291 1439.58 934.36 1443.69C933.95 1448.35 934.36 1462.95 934.36 1462.95L936.413 1506.71C935.07 1511.31 934.374 1516.07 934.36 1520.87C934.764 1526.44 942.661 1606.23 942.661 1606.23C942.661 1606.23 956.389 1653.84 951.706 1657.27C947.024 1660.69 958.358 1703.72 958.358 1703.72Z" fill="#6C63FF"/>
<path id="Vector 66" opacity="0.1" d="M857.621 562.792C856.035 566.942 855.784 574.146 856.216 582.214C843.726 589.965 829.372 593.927 814.795 593.647C800.225 593.366 786.016 588.854 773.819 580.628C773.151 569.17 771.808 557.763 769.818 546.47C769.818 546.47 863.048 548.592 857.621 562.792Z" fill="black"/>
<path id="Vector 67" d="M893.657 511.262C893.677 519.664 892.39 528.016 889.858 536.001C884.187 553.893 872.567 569.144 857.044 579.059C841.521 588.973 823.096 592.913 805.026 590.181C786.956 587.45 770.41 578.223 758.304 564.131C746.197 550.039 739.308 531.99 738.87 513.174C738.87 512.521 738.87 511.915 738.87 511.262C738.689 500.671 740.561 490.149 744.374 480.312C748.187 470.474 753.858 461.517 761.066 453.963C768.267 446.409 776.86 440.409 786.344 436.314C795.821 432.218 805.993 430.109 816.277 430.109C826.554 430.109 836.727 432.218 846.203 436.314C855.687 440.409 864.28 446.409 871.482 453.963C878.69 461.517 884.361 470.474 888.174 480.312C891.987 490.149 893.858 500.671 893.677 511.262H893.657Z" fill="#CF6F80"/>
<path id="Vector 68" opacity="0.1" d="M828.501 686.369C798.637 674.408 760.222 634.886 769.817 616.42C771.946 611.759 773.212 606.73 773.546 601.59L814.432 636.215L839.724 657.597L858.949 607.14C860.584 617.725 862.213 625.793 862.213 625.793C862.213 625.793 856.507 634.024 853.16 634.467C849.813 634.91 871.348 703.411 828.501 686.369Z" fill="black"/>
<path id="Vector 69" d="M934.221 839.397L900.086 1430.47L855.561 1433.48L740.268 1090.75L759.18 683.85L763.166 597.882L814.433 641.274L839.746 662.656L859.541 610.73L896.349 643.793L934.221 839.397Z" fill="#6C63FF"/>
<path id="Vector 70" opacity="0.1" d="M786.871 1433.46C785.354 1437.32 784.206 1441.33 783.434 1445.42C751.037 1440.26 719.573 1430.13 690.089 1415.36L689.478 1415.03L689.681 1411.28L689.794 1409.32L701.107 1387.59C701.107 1387.59 792.305 1419.77 786.871 1433.46Z" fill="black"/>
<path id="Vector 71" opacity="0.1" d="M867.208 1445.51C858.928 1446.96 850.572 1447.94 842.187 1448.45C841.693 1436.79 841.394 1428.77 841.394 1428.77L866.554 1423.55L867.208 1445.51Z" fill="black"/>
<path id="Vector 72" opacity="0.1" d="M933.268 1431.52C917.189 1435.83 892.348 1440.68 870.104 1437.65L869.791 1422.87L930.464 1410.33C930.464 1410.33 932.141 1421.86 933.268 1431.52Z" fill="black"/>
<path id="Vector 73" opacity="0.1" d="M869.7 1440.36C776.943 1456.68 691.991 1409.88 691.991 1409.88L692.805 1394.03C692.805 1394.03 694.909 1214.28 689.072 1200.5C683.235 1186.72 678.688 1116.84 681.991 1106.11C685.294 1095.39 669.932 934.549 669.932 934.549L667.444 869.262L576.361 831.236L617.084 743.754C622.584 731.487 627.315 718.872 631.246 705.979C638.327 683.269 671.2 660.955 671.2 660.955C671.2 660.955 704.907 638.664 718.232 639.503C731.556 640.343 749.028 619.778 749.028 619.778C761.921 585.899 773.596 601.241 773.596 601.241C773.596 602.85 773.596 601.242 772.963 606.254C768.433 643.445 846.126 760.961 847.232 763.034L854.629 948.778L862.122 1183.83L869.7 1440.36Z" fill="black"/>
<path id="Vector 74" d="M867.208 1440.36C774.451 1456.68 689.479 1409.88 689.479 1409.88L690.316 1394.03C690.316 1394.03 692.42 1214.28 686.56 1200.5C680.7 1186.72 676.176 1116.84 679.502 1106.11C682.827 1095.39 667.443 934.548 667.443 934.548L664.932 869.261L573.804 831.096L614.527 743.614C620.015 731.34 624.745 718.725 628.689 705.839C635.748 683.128 668.642 660.814 668.642 660.814C668.642 660.814 702.353 638.524 715.656 639.363C728.953 640.203 746.445 619.637 746.445 619.637C759.359 585.758 773.595 601.1 773.595 601.1C773.595 602.709 772.239 603.432 772.962 606.113C782.912 642.184 843.634 760.821 844.747 762.894L852.234 948.631L859.721 1183.69L867.208 1440.36Z" fill="white"/>
<path id="Vector 75" opacity="0.1" d="M842.209 768.19C832.232 763.897 779.386 701.714 779.386 701.714V687.559C777.466 682.896 766.041 685.74 756.766 689.005L760.746 603.036L765.268 606.907C775.176 642.955 841.061 766.11 842.209 768.19Z" fill="black"/>
<path id="Vector 76" d="M844.722 763.033C834.723 758.74 781.877 696.557 781.877 696.557V682.405C779.95 677.741 768.525 680.587 759.25 683.851L763.258 597.882L767.78 601.753C777.709 637.8 843.615 760.981 844.722 763.033Z" fill="white"/>
<path id="Vector 77" opacity="0.1" d="M691.989 1073.17C693.233 1073.17 756.493 1066.31 756.493 1066.31C756.493 1066.31 794.79 1143.93 792.278 1162.82C789.767 1181.71 785.223 1198.42 769.818 1195.46C754.406 1192.5 686.899 1197.8 686.899 1197.8L691.989 1073.17Z" fill="black"/>
<path id="Vector 78" d="M689.481 1068.01C690.725 1068.01 753.983 1061.16 753.983 1061.16C753.983 1061.16 792.258 1138.8 789.767 1157.67C787.283 1176.53 782.691 1193.27 767.307 1190.31C751.923 1187.34 684.39 1192.64 684.39 1192.64L689.481 1068.01Z" fill="white"/>
<path id="Vector 79" d="M737.15 1031.57C737.15 1031.57 795.2 1063.72 796.446 1073.54C797.684 1083.36 766.895 1069.25 760.243 1067.55C755.867 1066.46 751.413 1065.74 746.919 1065.4L702.554 1066.64L737.15 1031.57Z" fill="#CF6F80"/>
<path id="Vector 80" opacity="0.1" d="M826.01 772.197C829.384 772.197 832.119 769.378 832.119 765.899C832.119 762.427 829.384 759.601 826.01 759.601C822.635 759.601 819.901 762.427 819.901 765.899C819.901 769.378 822.635 772.197 826.01 772.197Z" fill="black"/>
<path id="Vector 81" d="M826.01 769.628C829.384 769.628 832.119 766.81 832.119 763.338C832.119 759.859 829.384 757.041 826.01 757.041C822.635 757.041 819.901 759.859 819.901 763.338C819.901 766.81 822.635 769.628 826.01 769.628Z" fill="#3F3D56"/>
<path id="Vector 82" opacity="0.1" d="M837.256 1044.72C840.63 1044.72 843.365 1041.9 843.365 1038.42C843.365 1034.95 840.63 1032.13 837.256 1032.13C833.881 1032.13 831.146 1034.95 831.146 1038.42C831.146 1041.9 833.881 1044.72 837.256 1044.72Z" fill="black"/>
<path id="Vector 83" d="M837.256 1042.13C840.63 1042.13 843.365 1039.31 843.365 1035.83C843.365 1032.36 840.63 1029.54 837.256 1029.54C833.881 1029.54 831.146 1032.36 831.146 1035.83C831.146 1039.31 833.881 1042.13 837.256 1042.13Z" fill="#3F3D56"/>
<path id="Vector 84" opacity="0.1" d="M832.098 908.462C835.473 908.462 838.207 905.637 838.207 902.165C838.207 898.686 835.473 895.868 832.098 895.868C828.724 895.868 825.989 898.686 825.989 902.165C825.989 905.637 828.724 908.462 832.098 908.462Z" fill="black"/>
<path id="Vector 85" d="M832.098 905.896C835.473 905.896 838.207 903.078 838.207 899.599C838.207 896.12 835.473 893.302 832.098 893.302C828.724 893.302 825.989 896.12 825.989 899.599C825.989 903.078 828.724 905.896 832.098 905.896Z" fill="#3F3D56"/>
<path id="Vector 86" d="M972.908 1064.1C972.908 1064.1 977.069 1070.54 972.908 1073.54C968.747 1076.55 973.318 1083.83 973.318 1083.83C973.318 1083.83 962.93 1090.09 967.502 1095.74C972.073 1101.38 969.178 1126.87 969.178 1126.87L956.689 1148.18C956.689 1148.18 957.433 1161.91 957.482 1180.47C957.482 1209.43 955.826 1250.14 946.69 1268.7L947.957 1420.98C947.957 1420.98 904.226 1437.44 867.62 1432.43L862.186 1188.07C862.186 1188.07 870.104 1049.5 873.026 1022.92C874.731 1009.12 875.427 995.208 875.107 981.299C875.107 981.299 873.861 939.704 869.68 920.396C869.68 920.396 865.15 836.761 864.698 813.611C864.496 802.534 865.06 770.214 865.693 739.488C866.395 705.888 867.189 674.198 867.189 674.198L858.93 606.859C858.93 606.859 867.189 605.997 869.68 609.425C870.793 610.498 872.004 611.458 873.298 612.292C887.548 622.225 937.909 652.77 937.909 652.77C937.909 652.77 965.783 664.195 972.456 680.563C979.128 696.933 983.769 708.546 987.005 713.208C990.24 717.869 992.001 739.787 992.001 739.787C992.001 739.787 1001.6 780.123 1009.08 786.955C1016.57 793.788 1022.05 837.248 1022.05 837.248L955.875 890.88C955.875 890.88 950.058 980.089 948.813 983.54C947.567 986.991 972.908 1064.1 972.908 1064.1Z" fill="white"/>
<path id="Vector 87" d="M975.418 1064.1C975.418 1064.1 979.558 1070.53 975.418 1073.54C971.278 1076.54 975.801 1083.82 975.801 1083.82C975.801 1083.82 965.489 1090.16 970.012 1095.8C974.535 1101.45 971.682 1126.93 971.682 1126.93L959.199 1148.25C959.199 1148.25 959.944 1161.98 960.013 1180.54C960.013 1209.5 958.357 1250.21 949.221 1268.77L950.467 1421.05C950.467 1421.05 906.666 1437.51 870.102 1432.49L864.696 1188.14C864.696 1188.14 872.614 1049.57 875.536 1022.99C877.241 1009.19 877.93 995.276 877.596 981.366C877.596 981.366 876.35 939.772 872.19 920.463C872.19 920.463 867.66 836.828 867.187 813.679C866.985 802.602 867.569 770.282 868.182 739.555C868.884 705.955 869.678 674.266 869.678 674.266L858.768 606.018C858.768 606.018 869.678 606.018 872.19 609.492C873.289 610.578 874.506 611.54 875.808 612.36C890.058 622.293 940.44 652.838 940.44 652.838C940.44 652.838 968.293 664.263 974.966 680.632C981.639 697 986.28 708.613 989.536 713.275C992.792 717.937 994.511 739.854 994.511 739.854C994.511 739.854 1004.11 780.19 1011.59 787.023C1019.08 793.855 1024.49 837.225 1024.49 837.225L958.316 890.857C958.316 890.857 952.499 980.065 951.232 983.516C949.966 986.968 975.418 1064.1 975.418 1064.1Z" fill="white"/>
<path id="Vector 88" opacity="0.1" d="M896.167 694.063L902.137 712.017L870.694 744.656C871.397 711.084 872.19 679.374 872.19 679.374L861.28 611.127C861.28 611.127 872.19 611.127 874.695 614.601C875.801 615.683 877.012 616.637 878.32 617.445L905.06 696.953L896.167 694.063Z" fill="black"/>
<path id="Vector 89" d="M893.655 688.909L899.653 706.859L868.203 739.506C868.905 705.906 869.699 674.219 869.699 674.219L858.768 605.973C858.768 605.973 869.699 605.973 872.19 609.447C873.296 610.526 874.507 611.487 875.808 612.315L902.568 691.8L893.655 688.909Z" fill="white"/>
<path id="Vector 90" opacity="0.1" d="M893.657 511.262C893.677 519.664 892.39 528.016 889.858 536.001C889.426 536.07 888.995 536.049 888.57 535.941C888.153 535.833 887.756 535.639 887.415 535.371C886.824 514.386 876.804 494.684 864.475 477.919C861.01 472.858 856.814 468.375 852.027 464.629C847.191 460.884 841.18 459.131 835.154 459.709C828.363 460.665 822.372 465.422 815.519 466.028C806.467 466.797 798.367 460.339 789.385 460.012C785.732 460.048 782.135 460.886 778.823 462.47C775.511 464.055 772.56 466.348 770.181 469.199C765.463 474.952 761.957 481.653 759.883 488.878C756.328 499.833 754.393 511.278 754.136 522.827C754.024 529.356 753.412 537.54 747.533 539.918C747.978 535.116 747.442 530.273 745.974 525.693C744.506 521.113 742.133 516.898 739.002 513.313L738.87 513.174C738.87 512.521 738.87 511.915 738.87 511.262C738.689 500.671 740.561 490.149 744.374 480.312C748.187 470.474 753.858 461.517 761.066 453.963C768.267 446.409 776.86 440.409 786.344 436.314C795.821 432.218 805.993 430.109 816.277 430.109C826.554 430.109 836.727 432.218 846.203 436.314C855.687 440.409 864.28 446.409 871.482 453.963C878.69 461.517 884.361 470.474 888.174 480.312C891.987 490.149 893.858 500.671 893.677 511.262H893.657Z" fill="black"/>
<path id="Vector 91" d="M848.319 384.583C836.567 378.884 823.194 377.806 810.718 381.552C804.456 383.464 798.548 386.565 792.189 388.127C778.614 391.508 762.777 387.847 751.13 396.032C744.659 400.695 740.769 408.063 737.151 415.221L728.099 432.988C723.166 442.711 718.191 452.597 716.131 463.299C714.072 474.001 715.317 485.986 721.899 494.589C726.693 500.862 733.777 504.802 738.981 510.701C742.098 514.289 744.464 518.502 745.925 523.076C747.386 527.65 747.922 532.486 747.484 537.282C753.391 534.95 753.955 526.742 754.094 520.214C754.344 508.665 756.286 497.221 759.841 486.265C761.901 479.039 765.408 472.336 770.132 466.586C772.519 463.738 775.462 461.446 778.774 459.862C782.086 458.278 785.69 457.439 789.343 457.4C798.388 457.726 806.515 464.162 815.47 463.392C822.261 462.81 828.273 458.03 835.106 457.097C841.131 456.509 847.15 458.264 851.986 462.016C856.766 465.757 860.962 470.241 864.406 475.307C876.756 492.071 886.783 511.727 887.367 532.758C889.928 534.693 893.615 532.175 894.882 529.191C896.148 526.207 896.19 522.709 897.797 519.865C899.655 516.577 903.204 514.828 905.987 512.356C913.049 506.084 914.809 495.522 914.538 485.939C914.267 476.356 912.458 466.633 914.225 457.213C915.29 451.431 917.683 446.022 918.998 440.309C920.306 434.597 920.466 428.185 917.37 423.265C912.84 416.037 903.322 414.615 895.014 413.939C885.579 413.099 877.146 414.172 871.127 405.988C868.302 401.717 865.122 397.707 861.623 394.003C860.426 392.791 848.319 385.096 848.319 384.583Z" fill="#512E4E"/>
<path id="Vector 92" opacity="0.1" d="M602.422 876.281L578.781 831.235L571.292 900.738C571.292 900.738 575.455 931.611 574.618 936.342C573.781 941.081 591.676 983.517 591.676 983.517C591.676 983.517 650.792 1092.03 674.931 1097.63L756.493 1037.56L734.86 1009.25C734.86 1009.25 727.374 1006.25 725.495 1009.25C725.495 1009.25 685.338 938.047 681.175 932.891C677.012 927.742 677.827 917.458 677.827 917.458C677.827 917.458 671.583 910.605 673.664 904.168C675.745 897.732 661.606 875.418 661.606 875.418L674.501 862.991L602.422 876.281Z" fill="black"/>
<path id="Vector 93" d="M580.026 826.108L573.782 831.236L566.293 900.739C566.293 900.739 570.456 931.612 569.619 936.343C568.782 941.081 586.7 983.518 586.7 983.518C586.7 983.518 645.793 1092.03 669.932 1097.63L751.512 1037.56L729.866 1009.26C729.866 1009.26 722.372 1006.25 720.493 1009.26C720.493 1009.26 680.339 938.048 676.176 932.892C672.014 927.743 672.851 917.459 672.851 917.459C672.851 917.459 666.606 910.605 668.688 904.169C670.769 897.733 656.607 875.419 656.607 875.419L669.502 862.992L580.026 826.108Z" fill="white"/>
<path id="Vector 94" opacity="0.1" d="M967.501 1098.39C972.024 1104.07 969.178 1129.5 969.178 1129.5L956.688 1150.81C956.688 1150.81 957.433 1164.56 957.482 1183.11L936.482 1189.86C934.583 1190.48 932.572 1190.61 930.617 1190.26C928.661 1189.91 926.811 1189.07 925.231 1187.83C923.645 1186.59 922.371 1184.99 921.516 1183.14C920.66 1181.28 920.249 1179.25 920.305 1177.21L923.93 1056.87L972.907 1076.18C968.747 1079.16 973.318 1086.48 973.318 1086.48C973.318 1086.48 962.93 1092.73 967.501 1098.39Z" fill="black"/>
<path id="Vector 95" d="M970.013 1095.81C974.536 1101.48 971.683 1126.93 971.683 1126.93L959.201 1148.25C959.201 1148.25 959.945 1161.98 960.015 1180.54L938.633 1187.42C936.775 1188.01 934.806 1188.14 932.892 1187.8C930.972 1187.45 929.163 1186.63 927.618 1185.42C926.066 1184.21 924.821 1182.63 923.986 1180.82C923.144 1179.01 922.74 1177.02 922.796 1175.01L926.442 1054.3L975.441 1073.61C971.259 1076.59 975.823 1083.89 975.823 1083.89C975.823 1083.89 965.491 1090.16 970.013 1095.81Z" fill="white"/>
<path id="Vector 96" d="M986.233 1038.45C986.233 1038.45 982.907 1060.34 974.585 1061.63C966.257 1062.91 962.527 1097.04 954.219 1095.83C945.918 1094.62 951.415 1064.1 951.707 1058.18C952.007 1052.26 942.662 1027.72 949.655 1022.15C956.641 1016.58 978.767 1022.15 978.767 1022.15L986.233 1038.45Z" fill="#CF6F80"/>
<path id="Vector 97" opacity="0.1" d="M1003.95 869.844L1019.65 837.204C1019.65 837.204 1025.89 862.079 1025.89 875.369C1025.89 888.666 1034.62 889.967 1034.62 889.967C1034.62 889.967 1044.19 901.628 1039.15 910.11C1034.1 918.599 1032.07 939.723 1032.07 939.723C1032.07 939.723 1033.72 980.038 1026.23 985.611C1018.75 991.184 1017.18 1004.5 1017.18 1004.5C1017.18 1004.5 1003.42 1029.79 1003.86 1035.81C1004.29 1041.83 984.714 1082.56 984.714 1082.56C984.714 1082.56 994.288 1031.94 938.52 1010.07C938.52 1010.07 938.089 992.889 942.249 988.178C946.417 983.468 952.909 981.325 948.832 957.515C944.761 933.711 947.656 905.26 947.656 899.548C947.656 893.835 960.145 858.211 960.145 858.211L1003.95 869.844Z" fill="black"/>
<path id="Vector 98" d="M1010.74 832.541L1024.44 837.203C1024.44 837.203 1030.71 862.078 1030.71 875.368C1030.71 888.665 1039.45 889.966 1039.45 889.966C1039.45 889.966 1049.01 901.628 1043.97 910.109C1038.92 918.598 1036.91 939.723 1036.91 939.723C1036.91 939.723 1038.56 980.037 1031.07 985.611C1023.58 991.184 1021.91 1004.5 1021.91 1004.5C1021.91 1004.5 1008.18 1029.79 1008.61 1035.81C1009.04 1041.83 989.446 1082.56 989.446 1082.56C989.446 1082.56 999.041 1031.94 943.245 1010.07C943.245 1010.07 942.841 992.889 947.002 988.178C951.163 983.468 957.662 981.325 953.584 957.514C949.514 933.711 952.408 905.26 952.408 899.547C952.408 893.835 964.898 858.21 964.898 858.21L1010.74 832.541Z" fill="white"/>
<path id="Vector 99" opacity="0.1" d="M707.919 1678.62C707.919 1678.62 729.774 1664.47 744.114 1674.76C758.454 1685.04 707.919 1678.62 707.919 1678.62Z" fill="black"/>
<path id="Vector 100" opacity="0.1" d="M877.728 1634.86C877.728 1634.86 897.072 1632.3 913.319 1650.32C929.559 1668.35 877.728 1634.86 877.728 1634.86Z" fill="black"/>
<g id="Group" opacity="0.1">
<path id="Vector 101" opacity="0.1" d="M906.034 507.25C903.251 509.722 899.674 511.494 897.816 514.781C896.237 517.602 896.188 521.076 894.922 524.108C893.656 527.139 889.968 529.61 887.414 527.698C886.823 506.714 876.783 487.011 864.453 470.223C861.002 465.157 856.813 460.673 852.026 456.933C847.191 453.181 841.158 451.426 835.132 452.013C828.342 452.969 822.372 457.725 815.518 458.308C806.466 459.102 798.346 452.642 789.363 452.316C785.71 452.354 782.113 453.195 778.801 454.783C775.496 456.371 772.553 458.671 770.18 461.526C765.456 467.267 761.949 473.962 759.883 481.182C756.327 492.137 754.393 503.582 754.135 515.131C754.003 521.637 753.412 529.75 747.574 532.175C747.713 533.898 747.713 535.629 747.574 537.352C753.46 535.02 754.045 526.813 754.184 520.284C754.434 508.734 756.376 497.29 759.931 486.335C761.998 479.109 765.498 472.406 770.222 466.656C772.602 463.808 775.545 461.516 778.857 459.932C782.162 458.347 785.759 457.508 789.405 457.469C798.457 457.796 806.605 464.231 815.56 463.461C822.351 462.878 828.362 458.099 835.174 457.166C841.207 456.579 847.232 458.334 852.075 462.086C856.855 465.826 861.051 470.309 864.495 475.376C876.824 492.141 886.872 511.797 887.456 532.828C890.017 534.763 893.704 532.245 894.971 529.261C896.237 526.276 896.279 522.779 897.865 519.934C899.723 516.646 903.292 514.898 906.075 512.426C913.138 506.154 914.898 495.591 914.627 486.009C914.627 485.705 914.627 485.402 914.627 485.122C914.202 493.423 912.052 501.887 906.034 507.25Z" fill="black"/>
<path id="Vector 102" opacity="0.1" d="M739.023 505.595C733.826 499.696 726.721 495.755 721.948 489.507C717.927 483.975 715.63 477.316 715.359 470.41C714.649 479.04 716.987 487.643 721.948 494.636C726.721 500.909 733.826 504.849 739.023 510.748C744.019 516.518 747.018 523.832 747.554 531.547C747.902 526.852 747.324 522.133 745.856 517.674C744.395 513.214 742.071 509.106 739.023 505.595Z" fill="black"/>
<path id="Vector 103" opacity="0.1" d="M919.041 435.202C917.705 440.914 915.332 446.347 914.247 452.106C913.607 455.955 913.37 459.864 913.544 463.765C913.621 461.543 913.857 459.329 914.247 457.143C915.332 451.36 917.705 445.951 919.041 440.239C919.82 437.087 920.071 433.823 919.792 430.585C919.646 432.141 919.403 433.684 919.041 435.202Z" fill="black"/>
</g>
</g>
<g id="Group 3">
<path id="window2" opacity="0.1" d="M1819.55 1474.05H1755.21V1540.36H1819.55V1474.05Z" fill="#6C63FF"/>
<path id="Vector 104" opacity="0.1" d="M300.284 1773.42C422.033 1773.42 520.729 1757.09 520.729 1736.94C520.729 1716.79 422.033 1700.45 300.284 1700.45C178.537 1700.45 79.84 1716.79 79.84 1736.94C79.84 1757.09 178.537 1773.42 300.284 1773.42Z" fill="#6C63FF"/>
<path id="Vector 105" d="M307.389 1037.91H293.204V1367.07H307.389V1037.91Z" fill="#535461"/>
<path id="Vector 106" d="M396.524 1366.06L395.642 1380.9L394.376 1401.88L393.855 1410.6L392.61 1431.59L392.068 1440.31L390.801 1461.29L376.503 1699.28C375.881 1709.52 371.497 1719.13 364.243 1726.16C356.988 1733.19 347.409 1737.1 337.454 1737.1H263.112C253.16 1737.1 243.583 1733.18 236.333 1726.16C229.082 1719.13 224.703 1709.52 224.087 1699.28L209.857 1461.12L208.59 1440.15L208.069 1431.42L206.803 1410.44L206.282 1401.72L205.015 1380.73L204.11 1365.9C203.953 1363.05 204.363 1360.19 205.316 1357.51C206.268 1354.82 207.744 1352.36 209.65 1350.29C211.557 1348.21 213.855 1346.56 216.404 1345.43C218.952 1344.31 221.698 1343.72 224.472 1343.73H376.525C379.289 1343.75 382.017 1344.36 384.544 1345.52C387.07 1346.67 389.341 1348.34 391.215 1350.44C393.089 1352.53 394.527 1354.99 395.44 1357.69C396.354 1360.37 396.722 1363.23 396.524 1366.06Z" fill="#3F3D56"/>
<path id="Vector 107" d="M395.642 1380.89L394.376 1401.81H206.193L204.926 1380.89H395.642Z" fill="#9D9CB5"/>
<path id="Vector 108" d="M393.857 1410.54L392.612 1431.47H207.981L206.714 1410.54H393.857Z" fill="#9D9CB5"/>
<path id="Vector 109" d="M392.067 1440.22L390.823 1461.13H209.766L208.499 1440.22H392.067Z" fill="#9D9CB5"/>
<path id="Vector 110" d="M183.273 1161.28C265.872 1222.88 300.351 1319.22 300.351 1319.22C300.351 1319.22 200.807 1315.7 118.186 1254.1C35.5641 1192.5 1.15356 1096.18 1.15356 1096.18C1.15356 1096.18 100.652 1099.68 183.273 1161.28Z" fill="#6C63FF"/>
<path id="Vector 111" d="M1.08643 1096.18C1.08643 1096.18 104.431 1155.29 137.575 1204.23C170.719 1253.17 300.352 1319.22 300.352 1319.22" stroke="#535461" stroke-width="2" stroke-miterlimit="10"/>
<path id="Vector 112" d="M236.6 1037.19C281.553 1070.69 300.354 1123.13 300.354 1123.13C300.354 1123.13 246.17 1121.22 201.194 1087.71C156.218 1054.21 137.463 1001.75 137.463 1001.75C137.463 1001.75 191.624 1003.66 236.6 1037.19Z" fill="#6C63FF"/>
<path id="Vector 113" d="M137.463 1001.75C137.463 1001.75 193.706 1033.93 211.737 1060.55C229.768 1087.18 300.354 1123.13 300.354 1123.13" stroke="#535461" stroke-width="2" stroke-miterlimit="10"/>
<path id="Vector 114" d="M365.622 1120.48C313.973 1178.97 303.046 1255.43 303.046 1255.43C303.046 1255.43 375.871 1237.01 427.476 1178.49C479.08 1119.96 490.052 1043.53 490.052 1043.53C490.052 1043.53 417.272 1061.98 365.622 1120.48Z" fill="#6C63FF"/>
<path id="Vector 115" d="M490.098 1043.56C490.098 1043.56 422.815 1103.52 405.711 1144.84C388.608 1186.16 303.046 1255.43 303.046 1255.43" stroke="#535461" stroke-width="2" stroke-miterlimit="10"/>
<path id="Vector 116" d="M2261.61 1099.89C2261.61 1099.89 2224.26 908.362 2238.56 884.531C2238.56 884.531 2239.08 862.384 2238.22 834.148C2238.22 833.077 2238.22 831.999 2238.22 830.906C2240.74 832.632 2243.36 834.19 2246.08 835.568C2259.25 842.547 2274.37 844.558 2288.83 841.26L2277.52 828.269C2274.81 825.173 2271.97 821.812 2271.39 817.707C2270.8 813.602 2272.43 809.942 2273.83 806.282C2284.58 778.304 2285.15 743.117 2264.45 721.763C2246.95 703.805 2242.7 680.631 2223.72 664.24C2209.85 652.231 2202.23 634.628 2195.03 617.607C2188.95 603.22 2182.81 588.717 2179.33 573.468C2176.62 561.554 2175.53 549.219 2171.8 537.584C2168.06 525.949 2161.08 514.64 2150.15 509.441C2146.26 507.599 2141.94 506.55 2138.39 504.102C2133.73 500.861 2130.92 495.591 2127.55 490.974C2110.42 467.658 2053.07 481.392 2025.92 490.858C2018.54 493.242 2011.71 497.144 2005.83 502.33L2006.08 501.91C2006.28 501.56 2006.53 501.21 2006.76 500.861C2003.78 503.337 2001.22 506.289 1999.16 509.604C1995.2 516.063 1993.55 523.595 1990.24 530.589C1986.26 538.867 1964.11 561.973 1973.64 571.277C1974.3 571.901 1975.07 572.405 1975.9 572.769C1979.47 574.302 1983.41 574.708 1987.21 573.935L1986.81 574.937C1983.55 583.145 1981.89 591.929 1981.89 600.795C1981.89 639.104 2012.55 670.162 2050.4 670.162C2057.51 670.169 2064.59 669.044 2071.37 666.827C2071.53 667.714 2071.67 668.599 2071.83 669.486C2071.83 669.835 2071.94 670.185 2071.98 670.535L2070.78 672.26C2070.73 672.154 2070.66 672.053 2070.58 671.957L2035.06 723.113C2029.63 727.051 1998.36 750.367 1996.6 767.86C1994.75 787.001 1992.89 809.406 1992.89 809.406L1992.64 814.214C1991.09 815.55 1989.28 816.524 1987.32 817.067C1985.37 817.609 1983.32 817.707 1981.33 817.359C1970.25 815.494 1970.25 859.329 1970.25 859.329C1970.25 859.329 1962.87 866.322 1957.8 860.262C1952.73 854.201 1939.34 874.741 1939.34 874.741L1855.4 878.471L1853.48 878.589L1848.96 864.158C1848.47 862.634 1847.42 861.368 1846.04 860.638C1844.65 859.914 1843.04 859.775 1841.56 860.262C1841.21 860.38 1840.87 860.526 1840.54 860.707L1840.22 860.888L1839.64 861.312L1839.35 861.591C1839.18 861.744 1839.03 861.904 1838.89 862.078L1838.62 862.405L1838.48 862.544C1837.96 863.289 1837.61 864.151 1837.47 865.056C1837.33 865.967 1837.4 866.893 1837.67 867.769L1841.56 880.148C1825.36 883.508 1808.8 892.971 1822.31 919.043L1753.85 906.01L1776 925.173L1890.33 949.491C1888.82 952.295 1889.82 956.351 1894.54 962.064C1914.91 986.709 1952.01 993.396 1966.94 995.121C1970.89 1004.22 1975.81 1012.82 1981.62 1020.78L1980.34 1045.32C1980.34 1045.32 1942.53 1232.46 1935.61 1241.96C1939.1 1237.87 1942.3 1233.53 1945.18 1228.96C1934.2 1267.41 1918.87 1320.04 1914.84 1327.92C1908.37 1340.52 1902.37 1391.46 1909.75 1394.72C1912.01 1395.73 1918.48 1395.23 1927.71 1394.52V1398.73L1927.3 1558.66C1927.3 1558.66 1929.16 1656.76 1924.07 1666.11C1918.98 1675.45 1917.62 1695.07 1917.62 1695.07C1917.62 1695.07 1897.26 1733.75 1881.13 1749.3C1881.02 1749.41 1880.9 1749.53 1880.77 1749.62L1880.27 1745.98C1880.27 1745.98 1860.88 1771.21 1817.98 1769.79C1817.98 1769.79 1792.17 1787.09 1830.45 1788.02C1868.73 1788.96 1917.62 1786.63 1917.62 1786.63C1917.62 1786.63 1951.76 1733 1980.36 1739.99V1780.63H1989.11V1739.34C1993.17 1736.58 1996.65 1733.01 1999.32 1728.83C2002.01 1724.65 2003.83 1719.95 2004.7 1715.02C2005.45 1709.94 2004.9 1704.74 2003.11 1699.95C2001.31 1695.15 1998.34 1690.92 1994.47 1687.67C1992.73 1686.06 1991.34 1684.09 1990.38 1681.89C1989.42 1679.69 1988.91 1677.31 1988.89 1674.89L1988.57 1675.17C1988.57 1674.36 1988.37 1673.52 1988.27 1672.65C1985.76 1651.67 1982.62 1608.37 1993.73 1576.33C2008.95 1532.41 2013.57 1471.22 2002.48 1434.8C1998.91 1423.16 1995.97 1411.32 1993.68 1399.34C1993.41 1397.82 1993.16 1396.38 1992.94 1395.02C2000.51 1396.08 2008.01 1397.64 2015.4 1399.69C2041.08 1406.98 2097.25 1408.34 2145.21 1407.94C2145.33 1409.29 2145.46 1410.72 2145.62 1412.14C2146.48 1422.03 2148.27 1431.8 2150.96 1441.33C2156.98 1459.98 2159.74 1542.22 2159.74 1542.22C2159.74 1542.22 2167.5 1609.84 2163.27 1637.36C2161.01 1652.65 2158.75 1668.01 2157.46 1683.45V1683.75C2157.46 1683.75 2144.74 1721.06 2135.44 1741.32C2135.21 1741.84 2134.97 1742.35 2134.74 1742.84C2132.26 1743.07 2129.82 1743.63 2127.48 1744.5C2127.48 1744.5 2115.02 1770.14 2102.6 1774.39C2090.17 1778.63 2094.29 1792.6 2122.41 1787.47C2150.54 1782.34 2193 1778.14 2193 1778.14L2194.83 1751.97L2203.47 1740.84L2201.21 1766.92L2210.42 1765.06L2209.2 1733.33L2223.34 1715.09C2223.34 1715.09 2240.42 1699.42 2215.03 1668.6V1669.27C2214.76 1668.83 2214.51 1668.37 2214.22 1667.92V1667.78C2210.01 1661.07 2206.66 1648.54 2212.8 1626.33C2223.88 1586.17 2230.32 1549.73 2230.32 1549.73C2230.32 1549.73 2255.08 1452.11 2225.33 1405.91H2226.64C2223.59 1399.41 2221.44 1392.51 2220.23 1385.39C2220.09 1384.56 2219.95 1383.7 2219.83 1382.81C2241.84 1381.5 2263.45 1377.4 2281.08 1368.53C2281.01 1368.44 2270.39 1136.77 2261.61 1099.89ZM1982.14 938.302V938.769L1977.62 938.998L1982.14 938.302ZM1966.62 940.515C1965.88 940.689 1965.18 941.03 1964.59 941.517C1962.64 944.356 1961.42 947.654 1961.03 951.105L1953.98 949.47C1953.98 949.47 1949.02 948.378 1941.9 947.139L1938.52 943.639C1947.8 942.846 1957.44 941.684 1966.62 940.515Z" fill="url(#paint1_linear)"/>
<path id="Vector 117" d="M2200.17 1733.66L2197.48 1766.69L2206.51 1764.83L2205.15 1728.99L2200.17 1733.66Z" fill="#1D2366"/>
<path id="Vector 118" d="M1994.22 1576.78C1983.34 1608.73 1986.42 1651.84 1988.87 1672.77C1989.77 1680.51 1990.61 1685.22 1990.61 1685.22C1990.61 1685.22 1974.34 1723.41 1972.98 1724.86C1971.63 1726.31 1925.11 1755.57 1925.11 1755.57L1892.61 1775.13C1892.61 1775.13 1859.62 1760.24 1875.43 1755.1C1878.66 1753.77 1881.57 1751.73 1883.96 1749.11C1899.8 1733.61 1919.69 1695.07 1919.69 1695.07C1919.69 1695.07 1921.04 1675.5 1926.02 1666.2C1930.99 1656.9 1929.18 1559.13 1929.18 1559.13L1929.57 1399.76V1378.99L1991.44 1379.45C1991.83 1386.5 1992.73 1393.51 1994.11 1400.44C1996.33 1412.38 1999.21 1424.18 2002.73 1435.78C2013.64 1472.13 2009.11 1533.02 1994.22 1576.78Z" fill="#FFB0B1"/>
<path id="Vector 119" opacity="0.1" d="M1990.61 1685.22C1990.61 1685.22 1974.34 1723.41 1972.98 1724.86C1971.63 1726.31 1925.11 1755.57 1925.11 1755.57L1892.61 1775.13C1892.61 1775.13 1859.62 1760.23 1875.43 1755.11C1878.66 1753.76 1881.57 1751.72 1883.96 1749.11L1885.36 1759.3L1896.2 1758.84L1988.96 1672.82C1989.77 1680.52 1990.61 1685.22 1990.61 1685.22Z" fill="black"/>
<path id="Vector 120" d="M1989.47 1674.99L1896.2 1761.58L1885.36 1762.05L1883.1 1745.73C1883.1 1745.73 1864.14 1770.87 1822.02 1769.47C1822.02 1769.47 1796.73 1786.69 1834.21 1787.63C1871.7 1788.56 1919.57 1786.23 1919.57 1786.23C1919.57 1786.23 1953.01 1732.6 1980.99 1739.6V1780.1H1989.59V1739.22C1993.58 1736.45 1996.99 1732.88 1999.62 1728.71C2002.24 1724.54 2004.01 1719.87 2004.84 1714.97C2005.58 1709.93 2005.05 1704.78 2003.3 1700.01C2001.56 1695.24 1998.65 1691.02 1994.86 1687.74C1993.17 1686.1 1991.82 1684.13 1990.89 1681.94C1989.97 1679.74 1989.48 1677.38 1989.47 1674.99Z" fill="#1D2366"/>
<path id="Vector 121" d="M2208.77 1626.59C2202.75 1648.73 2206.03 1661.21 2210.15 1667.9V1668.04C2215.43 1676.3 2219.1 1685.54 2220.96 1695.25L2221.32 1697.35L2178.89 1761.12L2155.85 1770.45C2155.85 1770.45 2118.82 1757.41 2125.58 1753.68C2127.28 1752.77 2129.92 1747.92 2132.96 1741.23C2142.01 1721.06 2154.5 1683.85 2154.5 1683.85V1683.54C2155.81 1668.18 2157.89 1652.86 2160.2 1637.61C2164.34 1610.16 2156.73 1542.8 2156.73 1542.8C2156.73 1542.8 2154.02 1460.9 2148.14 1442.27C2145.48 1432.79 2143.72 1423.08 2142.86 1413.26C2141.65 1401.6 2141.38 1392 2141.38 1392C2141.38 1392 2165.76 1357.02 2210.47 1394.8C2214.04 1397.81 2217.19 1401.32 2219.81 1405.24C2250.69 1450.52 2225.83 1550.27 2225.83 1550.27C2225.83 1550.27 2219.6 1586.55 2208.77 1626.59Z" fill="#FFB0B1"/>
<path id="Vector 122" opacity="0.1" d="M2221.39 1697.35L2178.94 1761.12L2155.91 1770.45C2155.91 1770.45 2118.89 1757.41 2125.65 1753.68C2127.35 1752.77 2129.99 1747.92 2133.02 1741.23C2148.7 1741.09 2156.83 1756.48 2156.83 1756.48L2176.68 1753.21C2176.68 1753.21 2202.88 1700.14 2208.76 1696.9C2214.64 1693.66 2209.67 1672.68 2209.67 1672.68V1667.34C2209.83 1667.53 2209.96 1667.73 2210.14 1667.92V1668.06C2215.42 1676.32 2219.1 1685.57 2220.95 1695.27L2221.39 1697.35Z" fill="black"/>
<path id="Vector 123" d="M2158.18 1757.85C2158.18 1757.85 2146.87 1736.45 2125.2 1744.36C2125.2 1744.36 2113 1770 2100.81 1774.15C2088.61 1778.3 2092.69 1792.29 2120.24 1787.19C2147.79 1782.08 2189.33 1777.86 2189.33 1777.86L2191.14 1751.77L2219.15 1715C2219.15 1715 2235.85 1699.4 2211.01 1668.69V1674.03C2211.01 1674.03 2215.98 1695.02 2210.1 1698.26C2204.22 1701.49 2178.11 1754.59 2178.11 1754.59L2158.18 1757.85Z" fill="#1D2366"/>
<path id="Vector 124" opacity="0.1" d="M1991.51 1379.4C1991.9 1386.46 1992.79 1393.47 1994.19 1400.39C1968.71 1396.54 1945.07 1398.45 1929.57 1399.71V1378.94L1991.51 1379.4Z" fill="black"/>
<path id="Vector 125" opacity="0.1" d="M2222.32 1411.04C2222.32 1411.04 2186.12 1412.87 2142.95 1413.23C2141.74 1401.58 2141.46 1391.97 2141.46 1391.97C2141.46 1391.97 2165.85 1357 2210.56 1394.77C2214.13 1397.78 2217.28 1401.3 2219.9 1405.22C2220.6 1407.2 2221.4 1409.15 2222.32 1411.04Z" fill="black"/>
<path id="Vector 126" d="M2222.31 1406.85C2222.31 1406.85 2063.77 1414.75 2015.45 1400.78C1967.12 1386.82 1919.23 1398.92 1912.01 1395.68C1904.79 1392.44 1910.65 1341.68 1916.99 1329.11C1923.32 1316.54 1958.07 1189.44 1958.07 1189.44L1991.51 1009.77L2026.74 999.762L2029.22 999.038L2090.6 981.602L2135.58 968.799C2135.58 968.799 2225.01 1328.64 2217.34 1355.18C2214.56 1365.34 2214.1 1376.03 2216.03 1386.4C2217.2 1393.48 2219.32 1400.36 2222.31 1406.85Z" fill="#1D2366"/>
<path id="Vector 127" d="M1874.95 886.89C1874.95 886.89 1843.28 921.861 1867.26 941.357C1891.25 960.846 1907.01 943.221 1907.01 943.221L1874.95 886.89Z" fill="#C7DAF5"/>
<path id="Vector 128" opacity="0.1" d="M1874.95 886.89C1874.95 886.89 1843.28 921.861 1867.26 941.357C1891.25 960.846 1907.01 943.221 1907.01 943.221L1874.95 886.89Z" fill="black"/>
<path id="Vector 129" d="M2130.85 656.941C2130.85 656.941 2127.14 660.578 2121.55 665.941C2113.59 673.612 2101.8 684.827 2091.35 694.224C2076.87 707.213 2064.93 716.746 2069.2 708.612C2073.48 700.471 2072.67 686.296 2070.54 673.029C2070.38 672.143 2070.24 671.257 2070.08 670.395C2068.32 660.651 2065.99 651.026 2063.1 641.575C2063.1 641.575 2086.49 610.424 2099.42 598.137C2104.25 593.473 2107.61 591.561 2107.82 594.802C2108.04 599.162 2111.21 608.792 2115.15 619.004C2115.26 619.331 2115.38 619.634 2115.51 619.96C2118.13 626.955 2121.1 634.137 2123.7 640.34C2127.69 649.852 2130.85 656.941 2130.85 656.941Z" fill="#FFB0B1"/>
<path id="Vector 130" opacity="0.1" d="M2115.51 619.96C2113.31 632.146 2107.98 643.5 2100.07 652.836C2092.16 662.171 2081.96 669.145 2070.54 673.029C2068.74 662.385 2066.25 651.877 2063.1 641.575C2063.1 641.575 2107.14 582.934 2107.82 594.802C2107.98 599.302 2111.42 609.282 2115.51 619.96Z" fill="black"/>
<path id="Vector 131" opacity="0.1" d="M2066.15 688.697L2071.85 680.42C2071.85 680.42 2075.63 704.159 2089.52 693.687C2103.41 683.218 2104.09 772.472 2104.09 772.472L2089.18 1002.21L1981.44 995.567L1984.5 884.559L1996.69 828.596L2026.85 747.242L2044.79 720.364L2066.15 688.697Z" fill="black"/>
<path id="Vector 132" d="M2104.08 773.899L2090.51 981.622L2089.09 1003.64L2029.02 999.929L2026.76 999.789L1981.51 996.992L1984.57 885.957L1996.76 829.994L2026.92 748.641L2044.86 721.763L2066.21 689.98L2071.92 681.727C2071.92 681.727 2075.7 705.46 2089.58 694.993L2089.88 694.783C2103.45 685.923 2104.08 773.899 2104.08 773.899Z" fill="#1D2366"/>
<path id="Vector 133" d="M1759.35 908.781L1781.02 927.859L1959.43 966.49L1937.31 943.222L1759.35 908.781Z" fill="white"/>
<path id="Vector 134" d="M2066.49 696.04C2063.52 700.709 2055.04 724.582 2047.96 745.428C2042.06 762.802 2037.12 778.068 2037.12 778.068C2037.12 778.068 2025.61 855.343 2019.73 869.308C2013.84 883.273 2017.04 937.74 2017.04 937.74L1995.11 1072.26C1995.11 1072.26 1985.18 1141.62 1969.84 1183.06C1954.71 1223.84 1937.85 1242.96 1937.33 1243.56C1944.12 1234.09 1981.1 1047.7 1981.1 1047.7L1993.32 812.628C1993.32 812.628 1995.11 790.286 1996.92 771.194C1998.73 752.094 2035.38 726.029 2035.38 726.029L2070.72 674.243C2074.27 679.14 2071.89 687.673 2066.49 696.04Z" fill="white"/>
<path id="Vector 135" d="M1974.34 998.155C1974.34 998.155 1922.31 995.824 1897.11 964.624C1871.9 933.432 1955.36 952.176 1955.36 952.176L1977.05 957.304L1974.34 998.155Z" fill="#FFB0B1"/>
<path id="Vector 136" opacity="0.1" d="M2217.34 1355.2C2214.56 1365.36 2214.11 1376.05 2216.03 1386.42C2159.27 1390.57 2098.55 1374.76 2098.55 1374.76C2087.23 1385.49 2057.44 1401.3 2057.44 1401.3L2041.19 1193.78C2030.81 1165.8 2026.74 1019.21 2026.74 1019.21C2026.74 1019.21 2027.67 1011.54 2029 1000.04C2029 999.761 2029 999.462 2029.12 999.176C2033.16 967.072 2041.19 906.802 2045.13 898.661C2050.56 887.473 2028.43 857.693 2028.43 857.693L2038.5 769.208L2039.73 758.528C2060.95 748.759 2077.22 717.566 2077.22 717.566L2089.7 695.016C2103.27 686.039 2103.98 774.009 2103.98 774.009L2090.4 981.74L2135.38 968.937C2135.38 968.937 2225.01 1328.66 2217.34 1355.2Z" fill="black"/>
<path id="Vector 137" d="M2275.6 1369.54C2213.72 1401.2 2101.26 1371.87 2101.26 1371.87C2089.94 1382.6 2060.15 1398.4 2060.15 1398.4L2043.88 1190.89C2033.52 1162.91 2029.45 1016.32 2029.45 1016.32C2029.45 1016.32 2042.53 906.942 2047.95 895.774C2049.54 892.504 2048.77 887.654 2046.9 882.436C2037.66 857.575 2034.27 830.814 2036.98 804.346L2041.33 766.321L2042.53 755.661C2063.77 745.872 2080.04 714.672 2080.04 714.672L2091.35 694.247L2112.16 656.614L2122.03 638.8L2123.7 640.362L2136.48 652.301C2136.48 652.301 2141.91 656.964 2150.05 663.959C2167.77 679.348 2198.38 706.441 2214.17 723.022C2228.06 737.612 2232.45 794.389 2233.72 837.132C2234.56 865.27 2234.06 887.334 2234.06 887.334C2220.05 911.089 2256.68 1101.84 2256.68 1101.84C2265.21 1138.7 2275.6 1369.54 2275.6 1369.54Z" fill="white"/>
<path id="Vector 138" opacity="0.03" d="M2156.82 714.208C2156.82 714.208 2114.36 797.516 2119.29 829.182C2124.22 860.848 2138.25 896.682 2131.49 905.052C2129.16 908.225 2126.16 910.799 2122.7 912.574C2119.25 914.348 2115.45 915.28 2111.6 915.287C2104.81 915.753 2086.71 928.793 2086.71 930.191C2086.71 931.59 2069.99 931.59 2055.04 938.116C2040.09 944.643 2018 948.352 2018 948.352C2018 948.352 1975.02 946.953 1971.01 951.149C1967.01 955.351 1962.89 980.463 1971.47 1000.49C1980.05 1020.52 1989.56 1035.47 1996.76 1038.19C2003.95 1040.92 2049.61 1025.16 2086.64 1021.42C2123.68 1017.7 2163.88 987.456 2163.88 987.456C2163.88 987.456 2208.16 971.132 2215.91 943.69C2223.68 916.247 2206.44 765.412 2206.44 765.412C2206.44 765.412 2193.4 695.112 2156.82 714.208Z" fill="black"/>
<path id="Vector 139" opacity="0.03" d="M2151.39 707.214C2151.39 707.214 2108.93 790.543 2113.9 822.187C2118.88 853.825 2132.86 889.687 2126.08 898.078C2123.76 901.258 2120.76 903.832 2117.31 905.607C2113.87 907.388 2110.07 908.313 2106.21 908.313C2099.42 908.78 2081.32 921.819 2081.32 923.217C2081.32 924.616 2064.6 924.616 2049.65 931.122C2034.7 937.627 2012.62 941.357 2012.62 941.357C2012.62 941.357 1969.63 939.958 1965.65 944.154C1961.67 948.349 1957.51 973.489 1966.11 993.493C1974.7 1013.5 1984.2 1028.46 1991.4 1031.19C1998.59 1033.93 2044.25 1018.16 2081.28 1014.45C2118.31 1010.75 2158.52 980.461 2158.52 980.461C2158.52 980.461 2202.77 964.137 2210.44 936.716C2218.11 909.294 2200.96 758.417 2200.96 758.417C2200.96 758.417 2187.98 688.138 2151.39 707.214Z" fill="black"/>
<path id="Vector 140" d="M2155.49 710.011C2155.49 710.011 2113.02 793.34 2118 824.985C2122.97 856.623 2136.96 892.484 2130.2 900.855C2127.88 904.035 2124.87 906.623 2121.42 908.404C2117.97 910.186 2114.17 911.111 2110.3 911.118C2103.52 911.584 2085.42 924.616 2085.42 925.994C2085.42 927.365 2068.72 927.393 2053.75 933.919C2038.77 940.446 2016.71 944.154 2016.71 944.154C2016.71 944.154 1973.73 942.756 1969.73 946.952C1965.72 951.147 1961.61 976.287 1970.18 996.291C1978.75 1016.3 1988.28 1031.27 1995.47 1034C2002.67 1036.72 2048.32 1020.96 2085.35 1017.23C2122.39 1013.5 2162.59 983.259 2162.59 983.259C2162.59 983.259 2206.87 966.935 2214.62 939.493C2222.38 912.05 2205.26 761.215 2205.26 761.215C2205.26 761.215 2192.05 691.029 2155.49 710.011Z" fill="white"/>
<path id="Vector 141" opacity="0.1" d="M2154.56 933.523C2154.56 933.523 2120.62 926.53 2132.43 938.185C2144.25 949.846 2144.18 960.054 2158.64 959.587C2173.09 959.121 2154.56 933.523 2154.56 933.523Z" fill="black"/>
<path id="Vector 142" opacity="0.1" d="M2211.91 1184.36C2211.91 1184.36 2196.57 1195.06 2225.91 1219.73C2255.26 1244.4 2211.91 1184.36 2211.91 1184.36Z" fill="black"/>
<path id="Vector 143" opacity="0.1" d="M2182.63 1272.33C2182.63 1273.73 2177.2 1323.63 2197.52 1336.1C2217.84 1348.58 2182.63 1272.33 2182.63 1272.33Z" fill="black"/>
<path id="Vector 144" d="M1885.68 916.489L1886.32 915.8L1885.68 916.489Z" fill="#FFB0B1"/>
<path id="Vector 145" opacity="0.1" d="M2150.06 665.382C2132.68 677.623 2118.11 687.952 2115.27 690.097C2107.48 696.046 2092.64 730.947 2083.07 748.759C2075.45 763.1 2050.67 766.787 2041.33 767.692L2042.53 757.039C2063.77 747.243 2080.04 716.05 2080.04 716.05L2122.03 640.177L2136.48 653.724C2136.48 653.724 2141.92 658.387 2150.06 665.382Z" fill="black"/>
<path id="Vector 146" d="M2150.06 663.984C2132.68 676.225 2118.11 686.554 2115.27 688.723C2107.48 694.645 2092.64 729.55 2083.07 747.363C2075.45 761.703 2050.67 765.391 2041.33 766.295L2042.53 755.643C2063.77 745.846 2080.04 714.653 2080.04 714.653L2122.03 638.779L2136.48 652.279C2136.48 652.279 2141.92 656.896 2150.06 663.984Z" fill="#DCE7FF"/>
<path id="Vector 147" d="M2116.62 604.572C2116.63 618.57 2112.51 632.239 2104.81 643.768C2095.71 657.4 2082.18 667.22 2066.67 671.447C2051.14 675.674 2034.67 674.027 2020.23 666.806C2005.79 659.584 1994.34 647.266 1987.95 632.088C1981.57 616.909 1980.68 599.874 1985.44 584.076C1990.2 568.277 2000.29 554.759 2013.9 545.978C2027.5 537.195 2043.7 533.729 2059.58 536.209C2075.45 538.688 2089.93 546.95 2100.4 559.492C2110.86 572.035 2116.62 588.03 2116.62 604.572Z" fill="#FFB0B1"/>
<path id="Vector 148" opacity="0.1" d="M2233.72 837.154C2224.53 831.331 2217.05 823.044 2212.07 813.184C2208.29 805.489 2205.78 796.61 2199.33 791.148C2193.51 786.257 2185.76 785.067 2178.52 782.875C2154.72 775.625 2134.76 753.241 2134.02 727.685C2133.65 715.654 2137.29 703.645 2135.64 691.73C2134.71 684.987 2132.1 678.605 2128.09 673.194C2126.1 670.605 2123.91 668.181 2121.55 665.942C2118.38 662.864 2115.06 659.879 2112.16 656.615C2110.34 654.594 2108.75 652.365 2107.41 649.97C2106.34 648.011 2105.46 645.94 2104.81 643.791C2100.28 629.522 2104.4 612.594 2099.43 598.161L2099.15 597.368C2097.28 592.238 2093.45 587.109 2088.14 586.712C2082.82 586.316 2078.27 590.863 2073.2 592.892C2062.59 597.135 2051.15 589.907 2042.3 582.539C2033.45 575.171 2023.48 566.753 2012.23 568.386C2004.79 569.482 1998.91 574.704 1992.05 577.41C1990.51 578.027 1988.91 578.503 1987.28 578.832C1993.08 563.921 2003.74 551.558 2017.42 543.867C2031.11 536.175 2046.97 533.636 2062.27 536.685C2077.57 539.733 2091.37 548.179 2101.29 560.573C2111.21 572.965 2116.63 588.532 2116.62 604.596C2116.63 609.447 2116.13 614.285 2115.15 619.029C2115.26 619.356 2115.38 619.659 2115.51 619.985C2118.13 626.98 2121.1 634.161 2123.7 640.364L2136.48 652.302C2136.48 652.302 2141.91 656.965 2150.05 663.96C2167.77 679.349 2198.38 706.442 2214.17 723.023C2228.06 737.663 2232.41 794.419 2233.72 837.154Z" fill="black"/>
<path id="Vector 149" d="M1991.26 534.81C1994.5 528.026 1996.11 520.424 1999.97 513.989C2005.65 504.662 2015.56 498.693 2025.74 495.079C2052.33 485.636 2108.5 471.925 2125.29 495.079C2128.59 499.742 2131.33 504.919 2135.9 508.136C2139.38 510.585 2143.59 511.634 2147.41 513.476C2158.11 518.652 2164.95 529.937 2168.59 541.456C2172.23 552.974 2173.32 565.331 2175.98 577.2C2179.4 592.426 2185.4 606.859 2191.37 621.198C2198.41 638.126 2205.87 655.684 2219.45 667.644C2237.98 683.966 2242.07 707.076 2259.26 724.979C2279.62 746.242 2278.97 781.338 2268.47 809.198C2267.09 812.858 2265.53 816.685 2266.07 820.574C2266.62 824.471 2269.42 828.013 2272.07 831.116L2283.2 844.058C2256.86 850.612 2227.07 836.432 2214.81 811.557C2211.03 803.861 2208.52 794.997 2202.05 789.521C2196.26 784.623 2188.47 783.461 2181.26 781.269C2157.46 773.991 2137.51 751.586 2136.75 726.029C2136.39 714.02 2140.04 702.011 2138.39 690.121C2137.46 683.333 2134.85 676.906 2130.8 671.468C2124.58 663.098 2115.2 657.479 2110.13 648.152C2101.55 632.553 2108.07 612.291 2101.89 595.55C2100 590.421 2096.2 585.29 2090.87 584.895C2085.56 584.498 2081.01 589.045 2075.92 591.073C2065.34 595.317 2053.88 588.112 2045.04 580.72C2036.2 573.329 2026.22 564.936 2014.96 566.591C2007.51 567.663 2001.65 572.886 1994.79 575.614C1989.73 577.619 1979.46 579.415 1975.02 575.008C1965.66 566.125 1987.35 543.111 1991.26 534.81Z" fill="#591D4B"/>
<path id="Vector 150" opacity="0.1" d="M2221.1 803.858C2217.3 796.163 2214.81 787.305 2208.34 781.843C2202.55 776.952 2194.76 775.762 2187.53 773.57C2163.74 766.32 2143.79 743.908 2143.02 718.352C2142.66 706.349 2146.31 694.316 2144.67 682.424C2143.72 675.679 2141.12 669.298 2137.09 663.888C2130.85 655.517 2121.46 649.898 2116.41 640.572C2107.84 624.996 2114.36 604.734 2108.16 587.969C2106.28 582.863 2102.46 577.734 2097.16 577.314C2091.87 576.894 2087.27 581.487 2082.21 583.516C2071.62 587.759 2060.15 580.531 2051.33 573.164C2042.51 565.796 2032.48 557.378 2021.24 559.01C2013.8 560.106 2007.91 565.329 2001.08 568.034C1996.01 570.039 1985.72 571.858 1981.28 567.451C1971.97 558.125 1993.66 535.158 1997.55 526.904C2000.79 520.095 2002.39 512.517 2006.28 506.082C2006.48 505.732 2006.71 505.383 2006.94 505.033C2004.03 507.518 2001.52 510.461 1999.5 513.753C1995.63 520.189 1994.02 527.743 1990.79 534.575C1986.87 542.829 1965.18 565.865 1974.52 575.122C1979.04 579.552 1989.23 577.734 1994.29 575.728C2001.08 573 2007.01 567.777 2014.45 566.705C2025.77 565.049 2035.72 573.466 2044.54 580.835C2053.37 588.203 2064.9 595.431 2075.45 591.187C2080.51 589.159 2084.95 584.589 2090.38 585.008C2095.8 585.428 2099.43 590.534 2101.39 595.664C2107.57 612.405 2101.06 632.667 2109.63 648.266C2114.7 657.429 2124.09 663.165 2130.31 671.583C2134.36 677.02 2136.97 683.447 2137.89 690.235C2139.54 702.126 2135.9 714.135 2136.26 726.145C2137 751.792 2156.96 774.106 2180.76 781.377C2187.93 783.569 2195.76 784.738 2201.55 789.636C2208.04 795.112 2210.6 803.969 2214.31 811.665C2226.57 836.547 2256.37 850.72 2282.7 844.173L2277.45 838.063C2254.63 838.411 2231.53 825.024 2221.1 803.858Z" fill="black"/>
<path id="Vector 151" opacity="0.1" d="M2065.13 697.446C2062.16 702.108 2053.68 725.981 2046.6 746.827C2039.97 744.169 2033.95 727.22 2033.95 727.22L2069.29 675.409C2072.91 680.539 2070.53 689.05 2065.13 697.446Z" fill="black"/>
<path id="Vector 152" d="M2066.48 696.047C2063.52 700.709 2055.04 724.582 2047.95 745.428C2041.33 742.791 2035.31 725.821 2035.31 725.821L2070.65 674.033C2074.27 679.139 2071.89 687.673 2066.48 696.047Z" fill="#DCE7FF"/>
</g>
<g id="hand">
<path id="Vector 153" d="M1998.27 810.556C1998.27 810.556 1992.87 822.21 1982.01 820.325C1971.15 818.432 1971.17 862.288 1971.17 862.288C1971.17 862.288 1963.96 869.288 1958.98 863.228C1954 857.16 1940.88 877.659 1940.88 877.659L1858.66 881.388C1858.66 881.388 1895.25 898.616 1888.07 950.752C1888.07 950.752 2012.28 942.827 2016.35 930.727C2020.42 918.627 1998.27 810.556 1998.27 810.556Z" fill="white"/>
<g id="hand 2">
<path id="Vector 154" opacity="0.03" d="M2010.58 888.357C2010.58 888.357 2005.18 900.012 1994.31 898.126C1983.46 896.241 1983.48 940.097 1983.48 940.097C1983.48 940.097 1976.27 947.09 1971.28 941.029C1966.31 934.969 1953.19 955.46 1953.19 955.46L1870.97 959.19C1870.97 959.19 1907.56 976.425 1900.38 1028.56C1900.38 1028.56 2024.59 1020.63 2028.66 1008.53C2032.73 996.429 2010.58 888.357 2010.58 888.357Z" fill="black"/>
<g id="Group 2">
<path id="Vector 155" d="M1873.34 882.132C1856.95 882.717 1821.57 887.872 1839.92 923.149C1856.14 954.369 1883.4 933.502 1898.74 917.666C1895 902.908 1885.9 890.189 1873.34 882.132Z" fill="#FFB0B1"/>
<g id="Group 1">
<path id="Vector 156" d="M1874.28 935.11L1854.69 871.43C1854.46 870.686 1854.38 869.899 1854.44 869.12C1854.5 868.341 1854.71 867.582 1855.06 866.886C1855.41 866.191 1855.89 865.571 1856.47 865.07C1857.05 864.562 1857.72 864.18 1858.45 863.943C1859.91 863.477 1861.49 863.623 1862.84 864.347C1864.19 865.07 1865.22 866.316 1865.69 867.819L1885.28 931.422L1883.34 944.74L1874.28 935.11Z" fill="#BE8B87"/>
<path id="Vector 157" opacity="0.1" d="M1856.52 865.832C1857.98 865.352 1859.57 865.498 1860.93 866.222C1862.29 866.946 1863.32 868.198 1863.79 869.701L1883.37 933.31L1881.9 943.288L1883.33 944.825L1885.28 931.515L1865.57 867.906C1865.1 866.41 1864.08 865.157 1862.72 864.434C1861.37 863.71 1859.79 863.564 1858.33 864.037C1857.11 864.448 1856.05 865.269 1855.33 866.368C1855.71 866.152 1856.11 865.978 1856.52 865.832Z" fill="white"/>
<path id="Vector 158" d="M1874.28 935.109L1885.27 931.519L1883.67 942.428L1883.33 944.828L1880.12 941.377L1874.28 935.109Z" fill="#EFC8C4"/>
<path id="Vector 159" d="M1880.12 941.378C1880.31 941.128 1880.55 940.926 1880.82 940.773C1880.98 940.669 1881.16 940.613 1881.35 940.613C1881.54 940.613 1881.73 940.669 1881.89 940.773C1882.04 940.968 1882.16 941.177 1882.27 941.406C1882.41 941.664 1882.62 941.879 1882.87 942.046C1883.1 942.213 1883.38 942.318 1883.67 942.359L1883.33 944.69L1880.12 941.378Z" fill="#727A9C"/>
<path id="Vector 160" d="M1854.58 894.049C1854.58 894.049 1893.88 893.813 1884.62 911.048C1875.37 928.277 1860.91 930.351 1860.91 930.351L1854.58 894.049Z" fill="#FFB0B1"/>
</g>
</g>
</g>
</g>
<path id="heart" d="M1596.91 119.892H1595.21C1527.71 119.892 1468 156.708 1433.66 211.036C1399.32 156.708 1339.61 119.892 1272.11 119.892H1270.41C1219.74 120.389 1171.32 141.473 1135.65 178.563C1099.99 215.651 1079.97 265.748 1079.94 317.966C1079.94 382.809 1107.49 474.816 1161.22 550.524C1263.6 694.784 1433.66 820.998 1433.66 820.998C1433.66 820.998 1603.72 694.807 1706.07 550.524C1759.83 474.816 1787.36 382.809 1787.36 317.966C1787.33 265.752 1767.31 215.658 1731.65 178.57C1695.99 141.482 1647.57 120.395 1596.91 119.892ZM1572.64 561.623C1564.95 561.593 1557.45 559.168 1551.12 554.665C1544.8 550.162 1539.94 543.794 1537.18 536.395H1496.82C1494.17 536.377 1491.58 535.506 1489.43 533.9C1487.28 532.295 1485.66 530.037 1484.81 527.441L1472.41 488.946L1433.18 630.22C1432.42 632.94 1430.82 635.331 1428.63 637.034C1426.43 638.736 1423.76 639.659 1421.01 639.664H1420.22C1417.35 639.521 1414.62 638.369 1412.48 636.4C1410.34 634.431 1408.92 631.764 1408.46 628.845L1368.03 378.239L1338.48 526.532C1337.8 529.349 1336.23 531.85 1334.01 533.639C1331.79 535.426 1329.06 536.396 1326.24 536.395H1269.39C1267.69 536.469 1265.98 536.187 1264.39 535.566C1262.79 534.945 1261.34 533.998 1260.1 532.782C1258.87 531.565 1257.89 530.104 1257.22 528.487C1256.56 526.87 1256.21 525.13 1256.21 523.372C1256.21 521.615 1256.56 519.874 1257.22 518.257C1257.89 516.64 1258.87 515.18 1260.1 513.963C1261.34 512.747 1262.79 511.799 1264.39 511.178C1265.98 510.558 1267.69 510.276 1269.39 510.35H1316.29L1358.14 310.97C1358.83 308.023 1360.49 305.412 1362.84 303.586C1365.18 301.759 1368.07 300.83 1371.01 300.956C1373.95 301.084 1376.75 302.258 1378.95 304.28C1381.14 306.303 1382.59 309.046 1383.03 312.043L1424.32 567.685L1459.47 441.287C1460.21 438.625 1461.75 436.278 1463.88 434.597C1466.02 432.916 1468.62 431.991 1471.31 431.96H1471.56C1474.21 431.961 1476.8 432.827 1478.96 434.435C1481.11 436.043 1482.72 438.31 1483.55 440.913L1505.96 510.42H1536.69C1538.88 503.58 1542.85 497.496 1548.18 492.838C1553.5 488.179 1559.98 485.129 1566.88 484.023C1573.78 482.917 1580.85 483.799 1587.3 486.57C1593.75 489.341 1599.33 493.895 1603.42 499.728C1607.52 505.562 1609.97 512.448 1610.51 519.627C1611.04 526.807 1609.65 533.999 1606.47 540.412C1603.29 546.825 1598.46 552.208 1592.5 555.968C1586.54 559.727 1579.69 561.716 1572.71 561.716L1572.64 561.623Z" fill="#6C63FF"/>
</g>
</g>
<defs>
<linearGradient id="paint0_linear" x1="806.145" y1="1806.73" x2="806.145" y2="371.966" gradientUnits="userSpaceOnUse">
<stop stop-color="#808080" stop-opacity="0.25"/>
<stop offset="0.54" stop-color="#808080" stop-opacity="0.12"/>
<stop offset="1" stop-color="#808080" stop-opacity="0.1"/>
</linearGradient>
<linearGradient id="paint1_linear" x1="504997" y1="1.08254e+06" x2="504997" y2="346070" gradientUnits="userSpaceOnUse">
<stop stop-color="#808080" stop-opacity="0.25"/>
<stop offset="0.54" stop-color="#808080" stop-opacity="0.12"/>
<stop offset="1" stop-color="#808080" stop-opacity="0.1"/>
</linearGradient>
<clipPath id="clip0">
<rect width="2500" height="1825.08" fill="white"/>
</clipPath>
</defs>
</svg>
